<svg width="64" height="64" viewBox="0 0 64 64" fill="none" xmlns="http://www.w3.org/2000/svg">
<g clip-path="url(#clip0)">
<path d="M11.0001 28H20.0001V38H11.0001V28Z" stroke="#322153" stroke-width="2"/>
<path d="M38 14C37.6106 15.5887 34 17.3223 34 19.1429V26H63V19.1429C63 17.3223 58.8894 15.5887 58.5 14H38Z" fill="#34CB79"/>
<path d="M1.03227 38.1934V43.3546C1.03227 44.0719 0.500119 48.5 8.00004 51L8.50004 54.5H15H22.5001C22.5001 49.5 28.0001 49.5 29.5001 45.5L29.9355 38.1934H1.03227Z" fill="#34CB79"/>
<path d="M56.2742 12.6265V13.0253L56.663 13.114C60.5727 14.006 63.5 17.5051 63.5 21.6774V26.3387H55.7419H55.2419V26.8387V56.7742C55.2419 60.4824 52.2234 63.5 48.5161 63.5C44.8089 63.5 41.7903 60.4824 41.7903 56.7742V26.8387V26.3387H41.2903H33.5323V21.6774C33.5323 17.5051 36.4596 14.006 40.3693 13.114L40.7581 13.0253V12.6265V7.22581C40.7581 6.10407 41.4809 5.15005 42.4905 4.79L42.8226 4.67159V4.31905V3.09677C42.8226 1.66576 43.9883 0.5 45.4194 0.5H51.6129C53.0439 0.5 54.2097 1.66576 54.2097 3.09677V4.31905V4.67159L54.5417 4.79C55.5514 5.15005 56.2742 6.10407 56.2742 7.22581V12.6265ZM52.6452 4.62903H53.1452V4.12903V3.09677C53.1452 2.2524 52.4589 1.56452 51.6129 1.56452H45.4194C44.5733 1.56452 43.8871 2.2524 43.8871 3.09677V4.12903V4.62903H44.3871H52.6452ZM54.7097 12.8871H55.2097V12.3871V7.22581C55.2097 6.38143 54.5234 5.69355 53.6774 5.69355H43.3548C42.5088 5.69355 41.8226 6.38143 41.8226 7.22581V12.3871V12.8871H42.3226H54.7097ZM43.3548 26.3387H42.8548V26.8387V56.7742C42.8548 59.8961 45.3942 62.4355 48.5161 62.4355C51.638 62.4355 54.1774 59.8961 54.1774 56.7742V26.8387V26.3387H53.6774H51.6129H51.1129V26.8387V56.7742C51.1129 58.2052 49.9471 59.371 48.5161 59.371C47.0851 59.371 45.9194 58.2052 45.9194 56.7742V26.8387V26.3387H45.4194H43.3548ZM47.4839 26.3387H46.9839V26.8387V56.7742C46.9839 57.6186 47.6701 58.3064 48.5161 58.3064C49.3621 58.3064 50.0484 57.6186 50.0484 56.7742V26.8387V26.3387H49.5484H47.4839ZM34.5968 24.7742V25.2742H35.0968H61.9355H62.4355V24.7742V22.7097V20.6452V20.1452H62.2736C61.5604 16.6178 58.4457 13.9516 54.7097 13.9516H42.3226C38.5865 13.9516 35.4718 16.6178 34.7587 20.1452H34.5968V20.6452V22.7097V24.7742Z" fill="#322153" stroke="#322153"/>
<path d="M7.72581 51.5487V51.1075L7.28803 51.0526C3.46762 50.5735 0.5 47.3022 0.5 43.3547V37.6611H30.4677V43.3547C30.4677 47.3022 27.5001 50.5735 23.6797 51.0526L23.2419 51.1075V51.5487V56.774C23.2419 57.8958 22.5191 58.8498 21.5095 59.2098L21.1774 59.3283V59.6808V60.9031C21.1774 62.3341 20.0117 63.4998 18.5806 63.4998H12.3871C10.9561 63.4998 9.79032 62.3341 9.79032 60.9031V59.6808V59.3283L9.45826 59.2098C8.4486 58.8498 7.72581 57.8958 7.72581 56.774V51.5487ZM11.3548 59.3708H10.8548V59.8708V60.9031C10.8548 61.7474 11.5411 62.4353 12.3871 62.4353H18.5806C19.4267 62.4353 20.1129 61.7474 20.1129 60.9031V59.8708V59.3708H19.6129H11.3548ZM9.29032 55.2418H8.79032V55.7418V56.774C8.79032 57.6184 9.47656 58.3063 10.3226 58.3063H20.6452C21.4912 58.3063 22.1774 57.6184 22.1774 56.774V55.7418V55.2418H21.6774H9.29032ZM29.4032 39.2256V38.7256H28.9032H2.06452H1.56452V39.2256V41.2902V43.3547C1.56452 47.0467 4.56609 50.0482 8.25806 50.0482H8.79032V53.6773V54.1773H9.29032H21.6774H22.1774V53.6773V50.0482H22.7097C26.4016 50.0482 29.4032 47.0467 29.4032 43.3547V41.2902V39.2256Z" fill="#322153" stroke="#322153"/>
<path d="M27.7795 14.417L27.4141 14.9546L28.0275 15.1698C29.4481 15.6683 30.4677 17.0035 30.4677 18.5806C30.4677 20.1577 29.4481 21.4929 28.0275 21.9913L27.4141 22.2066L27.7795 22.7442C28.1732 23.3234 28.4032 24.0219 28.4032 24.7741C28.4032 26.7752 26.7753 28.4032 24.7742 28.4032H6.19355C4.19247 28.4032 2.56452 26.7752 2.56452 24.7741C2.56452 24.0219 2.79458 23.3234 3.18823 22.7442L3.55364 22.2066L2.94023 21.9913C1.51965 21.4929 0.5 20.1577 0.5 18.5806C0.5 17.0035 1.51965 15.6683 2.94023 15.1698L3.55364 14.9546L3.18823 14.417C2.79458 13.8378 2.56452 13.1393 2.56452 12.387C2.56452 10.8099 3.58416 9.4747 5.00475 8.97628L5.61816 8.76106L5.25274 8.22341C4.8591 7.64424 4.62903 6.94576 4.62903 6.19349C4.62903 4.19241 6.25699 2.56445 8.25806 2.56445H18.5806C20.5817 2.56445 22.2097 4.19241 22.2097 6.19349C22.2097 6.85013 22.02 7.46325 21.7036 8.00629L21.2656 8.758H22.1356H24.7742C26.7753 8.758 28.4032 10.386 28.4032 12.387C28.4032 13.1393 28.1732 13.8378 27.7795 14.417ZM18.5806 3.62897H8.25806C6.84331 3.62897 5.69355 4.77873 5.69355 6.19349C5.69355 7.60824 6.84331 8.758 8.25806 8.758H18.5806C19.9954 8.758 21.1452 7.60824 21.1452 6.19349C21.1452 4.77873 19.9954 3.62897 18.5806 3.62897ZM24.7742 9.82252H6.19355C4.7788 9.82252 3.62903 10.9723 3.62903 12.387C3.62903 13.8018 4.7788 14.9515 6.19355 14.9515H24.7742C26.1889 14.9515 27.3387 13.8018 27.3387 12.387C27.3387 10.9723 26.1889 9.82252 24.7742 9.82252ZM6.19355 27.3386H24.7742C26.1889 27.3386 27.3387 26.1889 27.3387 24.7741C27.3387 23.3594 26.1889 22.2096 24.7742 22.2096H6.19355C4.7788 22.2096 3.62903 23.3594 3.62903 24.7741C3.62903 26.1889 4.7788 27.3386 6.19355 27.3386ZM4.12903 21.1451H26.8387C28.2535 21.1451 29.4032 19.9953 29.4032 18.5806C29.4032 17.1658 28.2535 16.0161 26.8387 16.0161H4.12903C2.71428 16.0161 1.56452 17.1658 1.56452 18.5806C1.56452 19.9953 2.71428 21.1451 4.12903 21.1451Z" fill="#322153" stroke="#322153"/>
</g>
<defs>
<clipPath id="clip0">
<rect width="64" height="64" fill="white"/>
</clipPath>
</defs>
</svg>
