<svg width="64" height="64" viewBox="0 0 64 64" fill="none" xmlns="http://www.w3.org/2000/svg">
<path d="M11 44V27H22C21.7373 27.1641 21.4629 27.3041 21.1885 27.4333C19.1246 28.4166 17.705 30.3718 17.2518 32.5727L15.7721 39.8788L15.7838 40.0897C13.6843 40.6048 11.9187 42.0329 11.0117 44H11Z" fill="#34CB79"/>
<path d="M43.9091 2.5625L48.5152 2L56 16.0625V18.3125L54.2727 20H38.1515L37 17.75L37.5758 13.8125L43.9091 2.5625Z" fill="#34CB79"/>
<mask id="path-3-inside-1" fill="white">
<path fill-rule="evenodd" clip-rule="evenodd" d="M52.6666 49.4727C57.0983 49.4727 60.7037 53.0125 60.7037 57.3636V60.7455V63H3.29642L3.29626 60.7455V57.3636C3.29626 54.1981 5.2091 51.4691 7.95557 50.2119L9.90821 43.8226C9.96296 43.6461 10.0344 43.4798 10.106 43.3131C10.1326 43.2511 10.1593 43.189 10.1852 43.1263V25.205C10.1852 23.0561 11.4011 21.1241 13.3588 20.1636L14.7777 19.4668V16.7818H12.4815V13.4C12.4815 11.5357 14.0271 10.0182 15.9259 10.0182H22.8148C24.7136 10.0182 26.2592 11.5357 26.2592 13.4V16.7818H23.9629V19.4668L25.383 20.1636C26.4498 20.6865 27.2947 21.5254 27.8531 22.5442C28.2618 22.471 28.6817 22.4182 29.1274 22.4182C30.2155 22.4182 31.1848 22.6626 32.0712 23.1624C32.7557 22.8453 33.8635 22.4182 34.8726 22.4182C37.3847 22.4182 39.2946 23.7226 40.981 24.8742L40.9833 24.8758C41.6006 25.2975 42.1965 25.6806 42.8009 26.0185L45.7777 24.0695V21.2909H41.4559C38.7739 21.2909 36.5926 19.1492 36.5926 16.516C36.5926 15.7784 36.7703 15.0403 37.1055 14.3809L42.5755 3.63984C43.4046 2.01113 45.0714 1 46.9259 1C48.7804 1 50.4471 2.01113 51.2763 3.63874L56.7463 14.3798C57.0815 15.0403 57.2592 15.7784 57.2592 16.516C57.2592 19.1492 55.0779 21.2909 52.3959 21.2909H48.074V24.0695L54.4511 28.245L53.1774 30.1208L48.074 26.7798V29.7058L54.4511 33.8814L53.1774 35.7572L48.074 32.4161V35.3422L54.4511 39.5177L53.1774 41.3936L48.074 38.0525V40.9785L54.4511 45.153L53.1774 47.0288L48.074 43.6877V47.3084C49.7996 47.5517 51.3497 48.3295 52.5405 49.4727H52.6666ZM39.1596 15.3887C38.983 15.7371 38.8889 16.1268 38.8889 16.516C38.8889 17.9058 40.0404 19.0364 41.4559 19.0364H52.3959C53.8114 19.0364 54.9629 17.9058 54.9629 16.516C54.9629 16.1268 54.8699 15.7371 54.6922 15.3887L49.2222 4.64767C48.9682 4.14954 48.5573 3.77965 48.074 3.54077H45.7777C45.2945 3.77965 44.8836 4.14954 44.6296 4.64767L39.1596 15.3887ZM52.6666 56.1224V55.1091C52.6666 52.3867 50.6905 50.1096 48.074 49.5867V50.6C48.074 53.3213 50.0502 55.5995 52.6666 56.1224ZM41.1852 56.1224C43.8016 55.5995 45.7777 53.3224 45.7777 50.6V49.5867C43.1613 50.1096 41.1852 52.3867 41.1852 55.1091V56.1224ZM15.9259 12.2727C15.2935 12.2727 14.7777 12.7791 14.7777 13.4V14.5273H23.9629V13.4C23.9629 12.7791 23.4472 12.2727 22.8148 12.2727H15.9259ZM17.074 20.8605L14.3853 22.1804C13.2103 22.7561 12.4815 23.9153 12.4815 25.205V40.0252C13.1946 39.4434 14.0007 38.9799 14.8843 38.6701L16.2281 32.0754C16.7433 29.5495 18.3898 27.4028 20.6334 26.3356C21.4407 25.9508 22.2065 25.4279 23.0166 24.8747C23.8228 24.3243 24.6828 23.7414 25.6325 23.2807C25.3062 22.8205 24.8767 22.4363 24.3554 22.1804L21.6666 20.8605V16.7818H17.074V20.8605ZM11.3333 51.7273C8.16805 51.7273 5.59256 54.2559 5.59256 57.3636V60.7455H58.4074V57.3636C58.4074 54.8185 56.6689 52.6878 54.3048 51.9898C54.7263 52.947 54.9629 54.0011 54.9629 55.1091V58.4909H53.8148C50.8895 58.4909 48.3325 56.9431 46.9259 54.6434C45.5193 56.9431 42.9623 58.4909 40.037 58.4909H38.8889V55.1091C38.8889 51.1422 41.8887 47.8583 45.7777 47.3084V43.6877L40.6733 47.0277L39.3996 45.1519L45.7777 40.9774V38.0514L40.6733 41.3914L39.3996 39.5155L45.7777 35.3411V32.415L40.6733 35.755L39.3996 33.8792L45.7777 29.7047V26.7787L40.6733 30.1197L39.3996 28.2439L40.689 27.4006C40.3448 27.1777 40.0028 26.952 39.672 26.7253C38.1264 25.669 36.666 24.6727 34.8726 24.6727C34.1931 24.6727 33.1021 25.145 32.574 25.4417L31.9198 25.811L31.3132 25.3685C30.6578 24.8868 29.984 24.6727 29.1274 24.6727C27.3339 24.6727 25.8735 25.669 24.3279 26.7242C23.4808 27.3038 22.6034 27.9026 21.6347 28.3633C20.6336 28.8398 19.8005 29.6249 19.2226 30.5955L19.2222 30.5954L19.2214 30.5976C19.2155 30.6075 19.2096 30.6173 19.2038 30.6272C19.2059 30.6279 19.2079 30.6286 19.21 30.6292L18.4458 32.752C18.441 32.7505 18.4361 32.749 18.4313 32.7475L17.3162 38.2226C17.3611 38.2211 17.4048 38.2163 17.4484 38.2115C17.5007 38.2057 17.5528 38.2 17.6066 38.2H29.7037V40.4545H17.6066C15.0519 40.4545 12.8419 42.0689 12.1081 44.471L10.5686 49.5113C10.8215 49.4876 11.0749 49.4727 11.3333 49.4727H22.8148V51.7273H11.3333Z"/>
</mask>
<path fill-rule="evenodd" clip-rule="evenodd" d="M52.6666 49.4727C57.0983 49.4727 60.7037 53.0125 60.7037 57.3636V60.7455V63H3.29642L3.29626 60.7455V57.3636C3.29626 54.1981 5.2091 51.4691 7.95557 50.2119L9.90821 43.8226C9.96296 43.6461 10.0344 43.4798 10.106 43.3131C10.1326 43.2511 10.1593 43.189 10.1852 43.1263V25.205C10.1852 23.0561 11.4011 21.1241 13.3588 20.1636L14.7777 19.4668V16.7818H12.4815V13.4C12.4815 11.5357 14.0271 10.0182 15.9259 10.0182H22.8148C24.7136 10.0182 26.2592 11.5357 26.2592 13.4V16.7818H23.9629V19.4668L25.383 20.1636C26.4498 20.6865 27.2947 21.5254 27.8531 22.5442C28.2618 22.471 28.6817 22.4182 29.1274 22.4182C30.2155 22.4182 31.1848 22.6626 32.0712 23.1624C32.7557 22.8453 33.8635 22.4182 34.8726 22.4182C37.3847 22.4182 39.2946 23.7226 40.981 24.8742L40.9833 24.8758C41.6006 25.2975 42.1965 25.6806 42.8009 26.0185L45.7777 24.0695V21.2909H41.4559C38.7739 21.2909 36.5926 19.1492 36.5926 16.516C36.5926 15.7784 36.7703 15.0403 37.1055 14.3809L42.5755 3.63984C43.4046 2.01113 45.0714 1 46.9259 1C48.7804 1 50.4471 2.01113 51.2763 3.63874L56.7463 14.3798C57.0815 15.0403 57.2592 15.7784 57.2592 16.516C57.2592 19.1492 55.0779 21.2909 52.3959 21.2909H48.074V24.0695L54.4511 28.245L53.1774 30.1208L48.074 26.7798V29.7058L54.4511 33.8814L53.1774 35.7572L48.074 32.4161V35.3422L54.4511 39.5177L53.1774 41.3936L48.074 38.0525V40.9785L54.4511 45.153L53.1774 47.0288L48.074 43.6877V47.3084C49.7996 47.5517 51.3497 48.3295 52.5405 49.4727H52.6666ZM39.1596 15.3887C38.983 15.7371 38.8889 16.1268 38.8889 16.516C38.8889 17.9058 40.0404 19.0364 41.4559 19.0364H52.3959C53.8114 19.0364 54.9629 17.9058 54.9629 16.516C54.9629 16.1268 54.8699 15.7371 54.6922 15.3887L49.2222 4.64767C48.9682 4.14954 48.5573 3.77965 48.074 3.54077H45.7777C45.2945 3.77965 44.8836 4.14954 44.6296 4.64767L39.1596 15.3887ZM52.6666 56.1224V55.1091C52.6666 52.3867 50.6905 50.1096 48.074 49.5867V50.6C48.074 53.3213 50.0502 55.5995 52.6666 56.1224ZM41.1852 56.1224C43.8016 55.5995 45.7777 53.3224 45.7777 50.6V49.5867C43.1613 50.1096 41.1852 52.3867 41.1852 55.1091V56.1224ZM15.9259 12.2727C15.2935 12.2727 14.7777 12.7791 14.7777 13.4V14.5273H23.9629V13.4C23.9629 12.7791 23.4472 12.2727 22.8148 12.2727H15.9259ZM17.074 20.8605L14.3853 22.1804C13.2103 22.7561 12.4815 23.9153 12.4815 25.205V40.0252C13.1946 39.4434 14.0007 38.9799 14.8843 38.6701L16.2281 32.0754C16.7433 29.5495 18.3898 27.4028 20.6334 26.3356C21.4407 25.9508 22.2065 25.4279 23.0166 24.8747C23.8228 24.3243 24.6828 23.7414 25.6325 23.2807C25.3062 22.8205 24.8767 22.4363 24.3554 22.1804L21.6666 20.8605V16.7818H17.074V20.8605ZM11.3333 51.7273C8.16805 51.7273 5.59256 54.2559 5.59256 57.3636V60.7455H58.4074V57.3636C58.4074 54.8185 56.6689 52.6878 54.3048 51.9898C54.7263 52.947 54.9629 54.0011 54.9629 55.1091V58.4909H53.8148C50.8895 58.4909 48.3325 56.9431 46.9259 54.6434C45.5193 56.9431 42.9623 58.4909 40.037 58.4909H38.8889V55.1091C38.8889 51.1422 41.8887 47.8583 45.7777 47.3084V43.6877L40.6733 47.0277L39.3996 45.1519L45.7777 40.9774V38.0514L40.6733 41.3914L39.3996 39.5155L45.7777 35.3411V32.415L40.6733 35.755L39.3996 33.8792L45.7777 29.7047V26.7787L40.6733 30.1197L39.3996 28.2439L40.689 27.4006C40.3448 27.1777 40.0028 26.952 39.672 26.7253C38.1264 25.669 36.666 24.6727 34.8726 24.6727C34.1931 24.6727 33.1021 25.145 32.574 25.4417L31.9198 25.811L31.3132 25.3685C30.6578 24.8868 29.984 24.6727 29.1274 24.6727C27.3339 24.6727 25.8735 25.669 24.3279 26.7242C23.4808 27.3038 22.6034 27.9026 21.6347 28.3633C20.6336 28.8398 19.8005 29.6249 19.2226 30.5955L19.2222 30.5954L19.2214 30.5976C19.2155 30.6075 19.2096 30.6173 19.2038 30.6272C19.2059 30.6279 19.2079 30.6286 19.21 30.6292L18.4458 32.752C18.441 32.7505 18.4361 32.749 18.4313 32.7475L17.3162 38.2226C17.3611 38.2211 17.4048 38.2163 17.4484 38.2115C17.5007 38.2057 17.5528 38.2 17.6066 38.2H29.7037V40.4545H17.6066C15.0519 40.4545 12.8419 42.0689 12.1081 44.471L10.5686 49.5113C10.8215 49.4876 11.0749 49.4727 11.3333 49.4727H22.8148V51.7273H11.3333Z" fill="#322153"/>
<path d="M60.7037 63V64H61.7037V63H60.7037ZM3.29642 63L2.29642 63.0001L2.29649 64H3.29642V63ZM3.29626 60.7455H2.29626V60.7455L3.29626 60.7455ZM7.95557 50.2119L8.37178 51.1212L8.78053 50.9341L8.91191 50.5042L7.95557 50.2119ZM9.90821 43.8226L8.95309 43.5263L8.95187 43.5303L9.90821 43.8226ZM10.106 43.3131L11.0248 43.7078L11.0248 43.7078L10.106 43.3131ZM10.1852 43.1263L11.1097 43.5075L11.1852 43.3244V43.1263H10.1852ZM13.3588 20.1636L13.7993 21.0614L13.7996 21.0612L13.3588 20.1636ZM14.7777 19.4668L15.2186 20.3644L15.7777 20.0898V19.4668H14.7777ZM14.7777 16.7818H15.7777V15.7818H14.7777V16.7818ZM12.4815 16.7818H11.4815V17.7818H12.4815V16.7818ZM26.2592 16.7818V17.7818H27.2592V16.7818H26.2592ZM23.9629 16.7818V15.7818H22.9629V16.7818H23.9629ZM23.9629 19.4668H22.9629V20.09L23.5224 20.3645L23.9629 19.4668ZM25.383 20.1636L24.9424 21.0614L24.9429 21.0616L25.383 20.1636ZM27.8531 22.5442L26.9761 23.0248L27.3217 23.6553L28.0294 23.5286L27.8531 22.5442ZM32.0712 23.1624L31.58 24.0334L32.0264 24.2851L32.4914 24.0698L32.0712 23.1624ZM40.981 24.8742L41.5453 24.0487L41.5449 24.0484L40.981 24.8742ZM40.9833 24.8758L40.419 25.7014L40.4193 25.7016L40.9833 24.8758ZM42.8009 26.0185L42.3128 26.8913L42.8417 27.1871L43.3486 26.8551L42.8009 26.0185ZM45.7777 24.0695L46.3255 24.9061L46.7777 24.61V24.0695H45.7777ZM45.7777 21.2909H46.7777V20.2909H45.7777V21.2909ZM37.1055 14.3809L36.2144 13.9271L36.2141 13.9277L37.1055 14.3809ZM42.5755 3.63984L43.4666 4.09365L43.4667 4.09352L42.5755 3.63984ZM51.2763 3.63874L52.1674 3.18494L52.1673 3.18482L51.2763 3.63874ZM56.7463 14.3798L57.638 13.9272L57.6374 13.926L56.7463 14.3798ZM48.074 21.2909V20.2909H47.074V21.2909H48.074ZM48.074 24.0695H47.074V24.61L47.5262 24.9061L48.074 24.0695ZM54.4511 28.245L55.2784 28.8067L55.8496 27.9654L54.9989 27.4084L54.4511 28.245ZM53.1774 30.1208L52.6296 30.9575L53.4523 31.4961L54.0047 30.6826L53.1774 30.1208ZM48.074 26.7798L48.6218 25.9431L47.074 24.9298V26.7798H48.074ZM48.074 29.7058H47.074V30.2463L47.5262 30.5424L48.074 29.7058ZM54.4511 33.8814L55.2784 34.4431L55.8497 33.6018L54.9989 33.0447L54.4511 33.8814ZM53.1774 35.7572L52.6296 36.5939L53.4523 37.1325L54.0047 36.319L53.1774 35.7572ZM48.074 32.4161L48.6218 31.5795L47.074 30.5662V32.4161H48.074ZM48.074 35.3422H47.074V35.8827L47.5262 36.1788L48.074 35.3422ZM54.4511 39.5177L55.2784 40.0795L55.8496 39.2382L54.9989 38.6811L54.4511 39.5177ZM53.1774 41.3936L52.6296 42.2302L53.4523 42.7688L54.0047 41.9553L53.1774 41.3936ZM48.074 38.0525L48.6218 37.2158L47.074 36.2025V38.0525H48.074ZM48.074 40.9785H47.074V41.5191L47.5264 41.8152L48.074 40.9785ZM54.4511 45.153L55.2784 45.7147L55.8497 44.8733L54.9988 44.3163L54.4511 45.153ZM53.1774 47.0288L52.6296 47.8655L53.4523 48.4041L54.0047 47.5906L53.1774 47.0288ZM48.074 43.6877L48.6218 42.8511L47.074 41.8378V43.6877H48.074ZM48.074 47.3084H47.074V48.1773L47.9344 48.2987L48.074 47.3084ZM52.5405 49.4727L51.8479 50.1941L52.1382 50.4727H52.5405V49.4727ZM39.1596 15.3887L38.2685 14.9349L38.2677 14.9366L39.1596 15.3887ZM54.6922 15.3887L53.801 15.8425L53.8013 15.8431L54.6922 15.3887ZM49.2222 4.64767L50.1133 4.19387L50.1131 4.19348L49.2222 4.64767ZM48.074 3.54077L48.5172 2.64431L48.3077 2.54077H48.074V3.54077ZM45.7777 3.54077V2.54077H45.5441L45.3346 2.64431L45.7777 3.54077ZM44.6296 4.64767L43.7387 4.19348L43.7385 4.19387L44.6296 4.64767ZM52.6666 56.1224L52.4707 57.103L53.6666 57.3421V56.1224H52.6666ZM48.074 49.5867L48.27 48.6061L47.074 48.367V49.5867H48.074ZM41.1852 56.1224H40.1852V57.3421L41.3811 57.103L41.1852 56.1224ZM45.7777 49.5867H46.7777V48.367L45.5818 48.6061L45.7777 49.5867ZM14.7777 14.5273H13.7777V15.5273H14.7777V14.5273ZM23.9629 14.5273V15.5273H24.9629V14.5273H23.9629ZM14.3853 22.1804L14.8253 23.0784L14.826 23.0781L14.3853 22.1804ZM17.074 20.8605L17.5147 21.7581L18.074 21.4836V20.8605H17.074ZM12.4815 40.0252H11.4815V42.1317L13.1136 40.8L12.4815 40.0252ZM14.8843 38.6701L15.2152 39.6137L15.7508 39.4259L15.8641 38.8697L14.8843 38.6701ZM16.2281 32.0754L15.2482 31.8756L15.2482 31.8757L16.2281 32.0754ZM20.6334 26.3356L21.063 27.2386L21.0636 27.2383L20.6334 26.3356ZM23.0166 24.8747L22.4527 24.0489L22.4527 24.0489L23.0166 24.8747ZM25.6325 23.2807L26.0689 24.1804L27.131 23.6652L26.4482 22.7023L25.6325 23.2807ZM24.3554 22.1804L24.796 21.2827L24.3554 22.1804ZM21.6666 20.8605H20.6666V21.4836L21.226 21.7581L21.6666 20.8605ZM21.6666 16.7818H22.6666V15.7818H21.6666V16.7818ZM17.074 16.7818V15.7818H16.074V16.7818H17.074ZM5.59256 60.7455H4.59256V61.7455H5.59256V60.7455ZM58.4074 60.7455V61.7455H59.4074V60.7455H58.4074ZM54.3048 51.9898L54.5879 51.0307L52.5209 50.4205L53.3896 52.3929L54.3048 51.9898ZM54.9629 58.4909V59.4909H55.9629V58.4909H54.9629ZM46.9259 54.6434L47.779 54.1216L46.9259 52.7269L46.0728 54.1216L46.9259 54.6434ZM38.8889 58.4909H37.8889V59.4909H38.8889V58.4909ZM45.7777 47.3084L45.9177 48.2986L46.7777 48.177V47.3084H45.7777ZM45.7777 43.6877H46.7777V41.8384L45.2302 42.851L45.7777 43.6877ZM40.6733 47.0277L39.846 47.5895L40.3982 48.4028L41.2208 47.8645L40.6733 47.0277ZM39.3996 45.1519L38.852 44.3152L38.0009 44.8722L38.5723 45.7136L39.3996 45.1519ZM45.7777 40.9774L46.3254 41.8142L46.7777 41.5181V40.9774H45.7777ZM45.7777 38.0514H46.7777V36.202L45.2302 37.2146L45.7777 38.0514ZM40.6733 41.3914L39.846 41.9531L40.3982 42.7664L41.2208 42.2282L40.6733 41.3914ZM39.3996 39.5155L38.852 38.6788L38.0009 39.2358L38.5723 40.0773L39.3996 39.5155ZM45.7777 35.3411L46.3254 36.1778L46.7777 35.8817V35.3411H45.7777ZM45.7777 32.415H46.7777V30.5656L45.2302 31.5782L45.7777 32.415ZM40.6733 35.755L39.846 36.3168L40.3982 37.13L41.2208 36.5918L40.6733 35.755ZM39.3996 33.8792L38.852 33.0424L38.0009 33.5994L38.5723 34.4409L39.3996 33.8792ZM45.7777 29.7047L46.3254 30.5414L46.7777 30.2454V29.7047H45.7777ZM45.7777 26.7787H46.7777V24.9289L45.2301 25.942L45.7777 26.7787ZM40.6733 30.1197L39.846 30.6815L40.3983 31.4949L41.221 30.9564L40.6733 30.1197ZM39.3996 28.2439L38.8523 27.407L38.0007 27.9639L38.5723 28.8056L39.3996 28.2439ZM40.689 27.4006L41.2363 28.2376L42.5223 27.3965L41.2326 26.5613L40.689 27.4006ZM39.672 26.7253L40.2375 25.9005L40.2363 25.8996L39.672 26.7253ZM32.574 25.4417L32.0843 24.5698L32.0824 24.5709L32.574 25.4417ZM31.9198 25.811L31.3304 26.6189L31.8506 26.9984L32.4114 26.6818L31.9198 25.811ZM31.3132 25.3685L30.721 26.1743L30.7238 26.1763L31.3132 25.3685ZM24.3279 26.7242L23.7641 25.8983L23.7632 25.8989L24.3279 26.7242ZM21.6347 28.3633L21.2052 27.4603L21.2049 27.4604L21.6347 28.3633ZM19.2226 30.5955L18.8692 31.531L19.6531 31.8271L20.0818 31.1071L19.2226 30.5955ZM19.2222 30.5954L19.5756 29.6599L18.6253 29.3009L18.2813 30.2567L19.2222 30.5954ZM19.2214 30.5976L20.0808 31.1088L20.1298 31.0265L20.1623 30.9363L19.2214 30.5976ZM19.2038 30.6272L18.3415 30.1208L17.7112 31.1941L18.8951 31.5784L19.2038 30.6272ZM19.21 30.6292L20.1509 30.9679L20.5 29.998L19.5199 29.6785L19.21 30.6292ZM18.4458 32.752L18.147 33.7063L19.0619 33.9928L19.3867 33.0907L18.4458 32.752ZM18.4313 32.7475L18.7262 31.792L17.6717 31.4665L17.4514 32.5479L18.4313 32.7475ZM17.3162 38.2226L16.3363 38.023L16.0835 39.2644L17.3497 39.222L17.3162 38.2226ZM17.4484 38.2115L17.3392 37.2175L17.3392 37.2175L17.4484 38.2115ZM29.7037 38.2H30.7037V37.2H29.7037V38.2ZM29.7037 40.4545V41.4545H30.7037V40.4545H29.7037ZM12.1081 44.471L11.1517 44.1788L11.1517 44.1789L12.1081 44.471ZM10.5686 49.5113L9.61223 49.2191L9.17644 50.646L10.6618 50.5069L10.5686 49.5113ZM22.8148 49.4727H23.8148V48.4727H22.8148V49.4727ZM22.8148 51.7273V52.7273H23.8148V51.7273H22.8148ZM61.7037 57.3636C61.7037 52.443 57.6332 48.4727 52.6666 48.4727V50.4727C56.5634 50.4727 59.7037 53.582 59.7037 57.3636H61.7037ZM61.7037 60.7455V57.3636H59.7037V60.7455H61.7037ZM61.7037 63V60.7455H59.7037V63H61.7037ZM3.29642 64H60.7037V62H3.29642V64ZM2.29626 60.7455L2.29642 63.0001L4.29642 62.9999L4.29626 60.7454L2.29626 60.7455ZM2.29626 57.3636V60.7455H4.29626V57.3636H2.29626ZM7.53936 49.3027C4.46081 50.7119 2.29626 53.7816 2.29626 57.3636H4.29626C4.29626 54.6146 5.95738 52.2264 8.37178 51.1212L7.53936 49.3027ZM8.95187 43.5303L6.99923 49.9197L8.91191 50.5042L10.8645 44.1149L8.95187 43.5303ZM9.18719 42.9184C9.11875 43.0777 9.02593 43.2915 8.9531 43.5263L10.8633 44.1189C10.9 44.0006 10.95 43.8819 11.0248 43.7078L9.18719 42.9184ZM9.26064 42.7452C9.23806 42.7999 9.2143 42.8553 9.18719 42.9184L11.0248 43.7078C11.051 43.6469 11.0806 43.5781 11.1097 43.5075L9.26064 42.7452ZM9.18515 25.205V43.1263H11.1852V25.205H9.18515ZM12.9183 19.2659C10.6245 20.3913 9.18515 22.6676 9.18515 25.205H11.1852C11.1852 23.4446 12.1777 21.857 13.7993 21.0614L12.9183 19.2659ZM14.3369 18.5692L12.918 19.266L13.7996 21.0612L15.2186 20.3644L14.3369 18.5692ZM13.7777 16.7818V19.4668H15.7777V16.7818H13.7777ZM12.4815 17.7818H14.7777V15.7818H12.4815V17.7818ZM11.4815 13.4V16.7818H13.4815V13.4H11.4815ZM15.9259 9.01818C13.4922 9.01818 11.4815 10.9662 11.4815 13.4H13.4815C13.4815 12.1052 14.562 11.0182 15.9259 11.0182V9.01818ZM22.8148 9.01818H15.9259V11.0182H22.8148V9.01818ZM27.2592 13.4C27.2592 10.9662 25.2485 9.01818 22.8148 9.01818V11.0182C24.1787 11.0182 25.2592 12.1052 25.2592 13.4H27.2592ZM27.2592 16.7818V13.4H25.2592V16.7818H27.2592ZM23.9629 17.7818H26.2592V15.7818H23.9629V17.7818ZM24.9629 19.4668V16.7818H22.9629V19.4668H24.9629ZM25.8235 19.2659L24.4035 18.5691L23.5224 20.3645L24.9424 21.0614L25.8235 19.2659ZM28.73 22.0636C28.0781 20.8741 27.0853 19.8843 25.8231 19.2657L24.9429 21.0616C25.8144 21.4888 26.5113 22.1766 26.9761 23.0248L28.73 22.0636ZM29.1274 21.4182C28.6024 21.4182 28.1198 21.4805 27.6768 21.5599L28.0294 23.5286C28.4038 23.4615 28.7609 23.4182 29.1274 23.4182V21.4182ZM32.5623 22.2913C31.5152 21.7008 30.3746 21.4182 29.1274 21.4182V23.4182C30.0564 23.4182 30.8545 23.6243 31.58 24.0334L32.5623 22.2913ZM34.8726 21.4182C33.6341 21.4182 32.3597 21.9266 31.6509 22.255L32.4914 24.0698C33.1516 23.764 34.0928 23.4182 34.8726 23.4182V21.4182ZM41.5449 24.0484C39.888 22.9168 37.7356 21.4182 34.8726 21.4182V23.4182C37.0337 23.4182 38.7013 24.5283 40.417 25.7L41.5449 24.0484ZM41.5477 24.0503L41.5453 24.0487L40.4166 25.6998L40.419 25.7014L41.5477 24.0503ZM43.2889 25.1457C42.7202 24.8277 42.1511 24.4625 41.5474 24.0501L40.4193 25.7016C41.05 26.1324 41.6728 26.5334 42.3128 26.8913L43.2889 25.1457ZM45.23 23.2328L42.2531 25.1819L43.3486 26.8551L46.3255 24.9061L45.23 23.2328ZM44.7777 21.2909V24.0695H46.7777V21.2909H44.7777ZM41.4559 22.2909H45.7777V20.2909H41.4559V22.2909ZM35.5926 16.516C35.5926 19.7187 38.239 22.2909 41.4559 22.2909V20.2909C39.3088 20.2909 37.5926 18.5797 37.5926 16.516H35.5926ZM36.2141 13.9277C35.8079 14.7266 35.5926 15.6199 35.5926 16.516H37.5926C37.5926 15.9369 37.7326 15.354 37.9969 14.8341L36.2141 13.9277ZM41.6844 3.18604L36.2144 13.9271L37.9966 14.8347L43.4666 4.09365L41.6844 3.18604ZM46.9259 0C44.7024 0 42.6874 1.21588 41.6843 3.18616L43.4667 4.09352C44.1219 2.80639 45.4404 2 46.9259 2V0ZM52.1673 3.18482C51.1642 1.21577 49.1493 0 46.9259 0V2C48.4115 2 49.73 2.80649 50.3853 4.09267L52.1673 3.18482ZM57.6374 13.926L52.1674 3.18494L50.3852 4.09255L55.8552 14.8336L57.6374 13.926ZM58.2592 16.516C58.2592 15.6198 58.0438 14.7267 57.638 13.9272L55.8545 14.8324C56.1192 15.3538 56.2592 15.937 56.2592 16.516H58.2592ZM52.3959 22.2909C55.6128 22.2909 58.2592 19.7187 58.2592 16.516H56.2592C56.2592 18.5797 54.5429 20.2909 52.3959 20.2909V22.2909ZM48.074 22.2909H52.3959V20.2909H48.074V22.2909ZM49.074 24.0695V21.2909H47.074V24.0695H49.074ZM54.9989 27.4084L48.6218 23.2328L47.5262 24.9061L53.9033 29.0816L54.9989 27.4084ZM54.0047 30.6826L55.2784 28.8067L53.6238 27.6832L52.3501 29.5591L54.0047 30.6826ZM47.5263 27.6164L52.6296 30.9575L53.7251 29.2842L48.6218 25.9431L47.5263 27.6164ZM49.074 29.7058V26.7798H47.074V29.7058H49.074ZM54.9989 33.0447L48.6218 28.8692L47.5262 30.5424L53.9033 34.718L54.9989 33.0447ZM54.0047 36.319L55.2784 34.4431L53.6238 33.3196L52.3501 35.1955L54.0047 36.319ZM47.5263 33.2528L52.6296 36.5939L53.7251 34.9206L48.6218 31.5795L47.5263 33.2528ZM49.074 35.3422V32.4161H47.074V35.3422H49.074ZM54.9989 38.6811L48.6218 34.5056L47.5262 36.1788L53.9033 40.3543L54.9989 38.6811ZM54.0047 41.9553L55.2784 40.0795L53.6238 38.956L52.3501 40.8318L54.0047 41.9553ZM47.5263 38.8891L52.6296 42.2302L53.7251 40.5569L48.6218 37.2158L47.5263 38.8891ZM49.074 40.9785V38.0525H47.074V40.9785H49.074ZM54.9988 44.3163L48.6217 40.1419L47.5264 41.8152L53.9034 45.9897L54.9988 44.3163ZM54.0047 47.5906L55.2784 45.7147L53.6238 44.5912L52.3501 46.4671L54.0047 47.5906ZM47.5263 44.5244L52.6296 47.8655L53.7251 46.1922L48.6218 42.8511L47.5263 44.5244ZM49.074 47.3084V43.6877H47.074V47.3084H49.074ZM53.2331 48.7514C51.8931 47.4649 50.1503 46.5913 48.2137 46.3182L47.9344 48.2987C49.4489 48.5122 50.8064 49.1941 51.8479 50.1941L53.2331 48.7514ZM52.6666 48.4727H52.5405V50.4727H52.6666V48.4727ZM39.8889 16.516C39.8889 16.286 39.9451 16.051 40.0516 15.8408L38.2677 14.9366C38.021 15.4232 37.8889 15.9676 37.8889 16.516H39.8889ZM41.4559 18.0364C40.5753 18.0364 39.8889 17.3363 39.8889 16.516H37.8889C37.8889 18.4753 39.5055 20.0364 41.4559 20.0364V18.0364ZM52.3959 18.0364H41.4559V20.0364H52.3959V18.0364ZM53.9629 16.516C53.9629 17.3363 53.2765 18.0364 52.3959 18.0364V20.0364C54.3463 20.0364 55.9629 18.4753 55.9629 16.516H53.9629ZM53.8013 15.8431C53.907 16.0503 53.9629 16.2842 53.9629 16.516H55.9629C55.9629 15.9694 55.8327 15.424 55.583 14.9343L53.8013 15.8431ZM48.3311 5.10148L53.801 15.8425L55.5833 14.9349L50.1133 4.19387L48.3311 5.10148ZM47.6309 4.43722C47.9484 4.59414 48.188 4.82084 48.3313 5.10187L50.1131 4.19348C49.7484 3.47823 49.1662 2.96516 48.5172 2.64431L47.6309 4.43722ZM45.7777 4.54077H48.074V2.54077H45.7777V4.54077ZM45.5205 5.10187C45.6638 4.82084 45.9034 4.59414 46.2209 4.43722L45.3346 2.64431C44.6856 2.96516 44.1033 3.47823 43.7387 4.19348L45.5205 5.10187ZM40.0507 15.8425L45.5207 5.10148L43.7385 4.19387L38.2685 14.9349L40.0507 15.8425ZM51.6666 55.1091V56.1224H53.6666V55.1091H51.6666ZM47.8781 50.5673C50.0494 51.0012 51.6666 52.886 51.6666 55.1091H53.6666C53.6666 51.8874 51.3315 49.2179 48.27 48.6061L47.8781 50.5673ZM49.074 50.6V49.5867H47.074V50.6H49.074ZM52.8626 55.1418C50.6914 54.7079 49.074 52.8222 49.074 50.6H47.074C47.074 53.8205 49.4091 56.4912 52.4707 57.103L52.8626 55.1418ZM44.7777 50.6C44.7777 52.8231 43.1606 54.7079 40.9892 55.1418L41.3811 57.103C44.4426 56.4912 46.7777 53.8217 46.7777 50.6H44.7777ZM44.7777 49.5867V50.6H46.7777V49.5867H44.7777ZM42.1852 55.1091C42.1852 52.886 43.8023 51.0012 45.9737 50.5673L45.5818 48.6061C42.5203 49.2179 40.1852 51.8874 40.1852 55.1091H42.1852ZM42.1852 56.1224V55.1091H40.1852V56.1224H42.1852ZM15.7777 13.4C15.7777 13.3486 15.8284 13.2727 15.9259 13.2727V11.2727C14.7586 11.2727 13.7777 12.2096 13.7777 13.4H15.7777ZM15.7777 14.5273V13.4H13.7777V14.5273H15.7777ZM23.9629 13.5273H14.7777V15.5273H23.9629V13.5273ZM22.9629 13.4V14.5273H24.9629V13.4H22.9629ZM22.8148 13.2727C22.9123 13.2727 22.9629 13.3486 22.9629 13.4H24.9629C24.9629 12.2096 23.9821 11.2727 22.8148 11.2727V13.2727ZM15.9259 13.2727H22.8148V11.2727H15.9259V13.2727ZM14.826 23.0781L17.5147 21.7581L16.6334 19.9628L13.9446 21.2827L14.826 23.0781ZM13.4815 25.205C13.4815 24.3034 13.9873 23.489 14.8253 23.0784L13.9453 21.2824C12.4333 22.0233 11.4815 23.5273 11.4815 25.205H13.4815ZM13.4815 40.0252V25.205H11.4815V40.0252H13.4815ZM14.5533 37.7264C13.5543 38.0768 12.6472 38.5994 11.8493 39.2504L13.1136 40.8C13.7419 40.2874 14.4471 39.8831 15.2152 39.6137L14.5533 37.7264ZM15.2482 31.8757L13.9044 38.4704L15.8641 38.8697L17.2079 32.2751L15.2482 31.8757ZM20.2038 25.4325C17.6639 26.6408 15.8234 29.0558 15.2482 31.8756L17.2079 32.2753C17.6632 30.0432 19.1157 28.1649 21.063 27.2386L20.2038 25.4325ZM22.4527 24.0489C21.6292 24.6113 20.9281 25.0874 20.2032 25.4328L21.0636 27.2383C21.9533 26.8143 22.7839 26.2446 23.5805 25.7006L22.4527 24.0489ZM25.196 22.381C24.1705 22.8785 23.253 23.5024 22.4527 24.0489L23.5805 25.7006C24.3925 25.1462 25.195 24.6043 26.0689 24.1804L25.196 22.381ZM23.9147 23.0781C24.2734 23.2542 24.5781 23.5227 24.8167 23.8591L26.4482 22.7023C26.0342 22.1184 25.4801 21.6185 24.796 21.2827L23.9147 23.0781ZM21.226 21.7581L23.9147 23.0781L24.796 21.2827L22.1073 19.9628L21.226 21.7581ZM20.6666 16.7818V20.8605H22.6666V16.7818H20.6666ZM17.074 17.7818H21.6666V15.7818H17.074V17.7818ZM18.074 20.8605V16.7818H16.074V20.8605H18.074ZM6.59256 57.3636C6.59256 54.8254 8.70295 52.7273 11.3333 52.7273V50.7273C7.63314 50.7273 4.59256 53.6864 4.59256 57.3636H6.59256ZM6.59256 60.7455V57.3636H4.59256V60.7455H6.59256ZM58.4074 59.7455H5.59256V61.7455H58.4074V59.7455ZM57.4074 57.3636V60.7455H59.4074V57.3636H57.4074ZM54.0216 52.9489C55.9922 53.5307 57.4074 55.2938 57.4074 57.3636H59.4074C59.4074 54.3431 57.3455 51.8449 54.5879 51.0307L54.0216 52.9489ZM55.9629 55.1091C55.9629 53.8572 55.6954 52.6662 55.2199 51.5868L53.3896 52.3929C53.7573 53.2278 53.9629 54.145 53.9629 55.1091H55.9629ZM55.9629 58.4909V55.1091H53.9629V58.4909H55.9629ZM53.8148 59.4909H54.9629V57.4909H53.8148V59.4909ZM46.0728 55.1652C47.6547 57.7514 50.5291 59.4909 53.8148 59.4909V57.4909C51.2499 57.4909 49.0103 56.1348 47.779 54.1216L46.0728 55.1652ZM40.037 59.4909C43.3227 59.4909 46.1971 57.7514 47.779 55.1652L46.0728 54.1216C44.8415 56.1348 42.6019 57.4909 40.037 57.4909V59.4909ZM38.8889 59.4909H40.037V57.4909H38.8889V59.4909ZM37.8889 55.1091V58.4909H39.8889V55.1091H37.8889ZM45.6377 46.3183C41.2788 46.9346 37.8889 50.6207 37.8889 55.1091H39.8889C39.8889 51.6636 42.4986 48.782 45.9177 48.2986L45.6377 46.3183ZM44.7777 43.6877V47.3084H46.7777V43.6877H44.7777ZM41.2208 47.8645L46.3253 44.5245L45.2302 42.851L40.1258 46.191L41.2208 47.8645ZM38.5723 45.7136L39.846 47.5895L41.5006 46.466L40.2269 44.5901L38.5723 45.7136ZM45.2301 40.1407L38.852 44.3152L39.9472 45.9886L46.3254 41.8142L45.2301 40.1407ZM44.7777 38.0514V40.9774H46.7777V38.0514H44.7777ZM41.2208 42.2282L46.3253 38.8882L45.2302 37.2146L40.1258 40.5546L41.2208 42.2282ZM38.5723 40.0773L39.846 41.9531L41.5006 40.8296L40.2269 38.9538L38.5723 40.0773ZM45.2301 34.5044L38.852 38.6788L39.9472 40.3522L46.3254 36.1778L45.2301 34.5044ZM44.7777 32.415V35.3411H46.7777V32.415H44.7777ZM41.2208 36.5918L46.3253 33.2518L45.2302 31.5782L40.1258 34.9182L41.2208 36.5918ZM38.5723 34.4409L39.846 36.3168L41.5006 35.1933L40.2269 33.3174L38.5723 34.4409ZM45.2301 28.868L38.852 33.0424L39.9472 34.7159L46.3254 30.5414L45.2301 28.868ZM44.7777 26.7787V29.7047H46.7777V26.7787H44.7777ZM41.221 30.9564L46.3254 27.6154L45.2301 25.942L40.1256 29.283L41.221 30.9564ZM38.5723 28.8056L39.846 30.6815L41.5006 29.558L40.2269 27.6821L38.5723 28.8056ZM40.1417 26.5637L38.8523 27.407L39.9469 29.0808L41.2363 28.2376L40.1417 26.5637ZM39.1066 27.55C39.4469 27.7834 39.7967 28.0142 40.1454 28.24L41.2326 26.5613C40.8929 26.3413 40.5587 26.1207 40.2375 25.9005L39.1066 27.55ZM34.8726 25.6727C36.3044 25.6727 37.5085 26.4579 39.1078 27.5509L40.2363 25.8996C38.7444 24.8801 37.0276 23.6727 34.8726 23.6727V25.6727ZM33.0638 26.3135C33.2803 26.1919 33.6362 26.022 34.0104 25.885C34.4089 25.739 34.7154 25.6727 34.8726 25.6727V23.6727C34.3503 23.6727 33.7716 23.8425 33.3227 24.0069C32.8496 24.1802 32.3959 24.3947 32.0843 24.5698L33.0638 26.3135ZM32.4114 26.6818L33.0656 26.3125L32.0824 24.5709L31.4282 24.9402L32.4114 26.6818ZM30.7238 26.1763L31.3304 26.6189L32.5092 25.0031L31.9026 24.5606L30.7238 26.1763ZM29.1274 25.6727C29.7835 25.6727 30.2472 25.8261 30.721 26.1743L31.9054 24.5627C31.0685 23.9476 30.1844 23.6727 29.1274 23.6727V25.6727ZM24.8917 27.5501C26.4914 26.458 27.6954 25.6727 29.1274 25.6727V23.6727C26.9725 23.6727 25.2556 24.88 23.7641 25.8983L24.8917 27.5501ZM22.0642 29.2664C23.1146 28.7668 24.0545 28.1229 24.8926 27.5495L23.7632 25.8989C22.9071 26.4846 22.0922 27.0384 21.2052 27.4603L22.0642 29.2664ZM20.0818 31.1071C20.5657 30.2944 21.2545 29.6518 22.0644 29.2663L21.2049 27.4604C20.0128 28.0278 19.0353 28.9554 18.3633 30.084L20.0818 31.1071ZM18.8688 31.5308L18.8692 31.531L19.576 29.66L19.5756 29.6599L18.8688 31.5308ZM20.1623 30.9363L20.1631 30.934L18.2813 30.2567L18.2804 30.2589L20.1623 30.9363ZM20.0661 31.1336C20.071 31.1253 20.0759 31.117 20.0808 31.1088L18.3619 30.0863C18.3551 30.0979 18.3483 30.1094 18.3415 30.1208L20.0661 31.1336ZM19.5199 29.6785C19.5177 29.6778 19.5152 29.677 19.5126 29.6761L18.8951 31.5784C18.8965 31.5788 18.8981 31.5794 18.9 31.58L19.5199 29.6785ZM19.3867 33.0907L20.1509 30.9679L18.2691 30.2905L17.5049 32.4133L19.3867 33.0907ZM18.1364 33.703C18.14 33.7041 18.1435 33.7052 18.147 33.7063L18.7446 31.7977C18.7384 31.7957 18.7323 31.7938 18.7262 31.792L18.1364 33.703ZM18.2961 38.4221L19.4112 32.947L17.4514 32.5479L16.3363 38.023L18.2961 38.4221ZM17.3392 37.2175C17.3158 37.22 17.3035 37.2213 17.2928 37.2223C17.2831 37.2232 17.2808 37.2232 17.2827 37.2231L17.3497 39.222C17.4387 39.219 17.5197 39.2097 17.5576 39.2055L17.3392 37.2175ZM17.6066 37.2C17.4893 37.2 17.3833 37.2126 17.3392 37.2175L17.5576 39.2055C17.5713 39.204 17.5809 39.2029 17.5899 39.202C17.5985 39.2011 17.6043 39.2006 17.6085 39.2003C17.6168 39.1996 17.6148 39.2 17.6066 39.2V37.2ZM29.7037 37.2H17.6066V39.2H29.7037V37.2ZM30.7037 40.4545V38.2H28.7037V40.4545H30.7037ZM17.6066 41.4545H29.7037V39.4545H17.6066V41.4545ZM13.0644 44.7632C13.6668 42.7916 15.4812 41.4545 17.6066 41.4545V39.4545C14.6226 39.4545 12.0171 41.3463 11.1517 44.1788L13.0644 44.7632ZM11.525 49.8034L13.0645 44.7631L11.1517 44.1789L9.61223 49.2191L11.525 49.8034ZM11.3333 48.4727C11.0366 48.4727 10.7512 48.4898 10.4754 48.5156L10.6618 50.5069C10.8918 50.4854 11.1132 50.4727 11.3333 50.4727V48.4727ZM22.8148 48.4727H11.3333V50.4727H22.8148V48.4727ZM23.8148 51.7273V49.4727H21.8148V51.7273H23.8148ZM11.3333 52.7273H22.8148V50.7273H11.3333V52.7273Z" fill="#322153" mask="url(#path-3-inside-1)"/>
</svg>
