<svg width="469" height="511" viewBox="0 0 469 511" fill="none" xmlns="http://www.w3.org/2000/svg">
<path d="M228 465C102.079 465 2.96991e-06 475.297 1.91325e-06 488C8.56592e-07 500.703 102.079 511 228 511C353.921 511 456 500.703 456 488C456 475.297 353.921 465 228 465Z" fill="#F0F0F5"/>
<path d="M434.38 398.817C434.38 398.817 402.032 491.056 398.566 491.056C395.1 491.056 325.782 512.962 387.013 485.291C387.013 485.291 393.945 384.981 404.342 380.369C414.74 375.757 434.38 398.817 434.38 398.817Z" fill="#965450"/>
<path d="M410.119 465.229C420.632 437.903 434.38 398.817 434.38 398.817C434.38 398.817 414.74 375.757 404.343 380.369C397.642 383.367 392.327 426.489 389.439 456.466C396.371 459.233 403.187 462.231 410.119 465.229Z" fill="#76413B"/>
<path d="M376.962 490.249C376.962 490.249 374.305 496.36 399.721 489.903L398.566 493.362C398.566 493.362 326.938 510.195 376.962 490.249Z" fill="#051F38"/>
<path d="M414.739 359.731C414.739 359.731 464.764 443.784 462.569 446.435C460.374 449.087 432.647 516.191 450.669 451.509C450.669 451.509 378.117 381.753 381.236 370.8C384.471 359.962 414.739 359.731 414.739 359.731Z" fill="#965450"/>
<path d="M448.128 462.347C448.128 462.347 451.132 468.342 462.454 444.706L464.418 447.819C464.302 447.819 431.261 513.539 448.128 462.347Z" fill="#051F38"/>
<path d="M443.854 409.77C430.452 386.134 414.74 359.731 414.74 359.731C414.74 359.731 384.471 359.962 381.237 370.8C379.157 377.833 408.964 409.655 430.106 431.101C430.221 431.216 438.424 422.107 443.854 409.77Z" fill="#76413B"/>
<path d="M446.51 233.364C446.51 233.364 415.894 199.351 397.987 220.681C380.08 242.011 352.353 312.343 356.396 341.168C358.822 358.117 375.112 376.219 388.167 388.325L377.192 450.125C377.192 450.125 422.248 462.231 419.36 462.231C417.627 462.231 463.839 338.286 468.46 299.084C473.081 259.883 446.51 233.364 446.51 233.364Z" fill="#8257E6"/>
<path opacity="0.2" d="M423.058 240.974C431.608 240.858 440.965 239.705 449.168 236.362C447.551 234.402 446.511 233.364 446.511 233.364C446.511 233.364 415.896 199.351 397.988 220.681C395.216 224.025 392.212 228.406 389.208 233.71C399.259 239.244 411.968 241.204 423.058 240.974Z" fill="#352C38"/>
<path opacity="0.2" d="M377.193 257.461C364.485 286.401 353.74 322.374 356.398 341.053C358.708 357.886 374.882 375.873 387.937 387.979C392.558 356.618 400.992 313.035 406.075 287.9C393.483 280.752 383.085 270.49 377.193 257.461Z" fill="#352C38"/>
<path d="M358.131 165.337L339.646 201.08C339.646 201.08 307.297 183.209 302.676 183.209C298.055 183.209 276.104 183.785 286.502 188.397C286.502 188.397 281.881 191.28 287.08 192.433C287.08 192.433 282.459 196.468 288.235 197.044L301.521 196.468C301.521 196.468 328.093 220.681 341.379 224.14C354.665 227.599 376.038 182.632 376.038 182.632L358.131 165.337Z" fill="#965450"/>
<path d="M361.134 190.934C364.023 191.972 367.026 193.01 370.03 194.047C373.727 187.591 376.038 182.517 376.038 182.517L358.131 165.223L347.964 184.823C352.008 187.36 356.513 189.32 361.134 190.934Z" fill="#76413B"/>
<path d="M381.236 148.043C381.236 148.043 363.907 145.161 357.552 154.385C351.198 163.608 348.31 178.597 348.31 178.597L373.149 190.704L381.236 148.043Z" fill="#34CB79"/>
<path opacity="0.1" d="M371.648 180.672C365.294 175.715 358.016 169.489 353.279 161.994C349.813 170.065 348.195 178.482 348.195 178.482L373.034 190.588L374.536 182.748C373.612 182.171 372.572 181.48 371.648 180.672Z" fill="#161826"/>
<path d="M259.699 178.943C260.393 180.788 259.353 182.863 257.504 183.555L243.872 188.513C242.023 189.205 239.944 188.167 239.251 186.322L233.821 171.218C233.127 169.373 234.167 167.298 236.016 166.606L249.648 161.648C251.497 160.956 253.576 161.994 254.269 163.839L259.699 178.943Z" fill="#23173B"/>
<path d="M270.675 167.643L227.928 182.978C220.419 185.63 216.607 193.931 219.264 201.426L232.434 237.975C235.091 245.47 243.409 249.275 250.919 246.623L293.665 231.288C301.174 228.636 304.987 220.335 302.33 212.84L289.159 176.291C286.387 168.796 278.184 164.876 270.675 167.643ZM298.171 216.184C299.21 219.182 297.708 222.526 294.705 223.563L276.335 172.832C279.339 171.794 282.69 173.293 283.729 176.291L298.171 216.184Z" fill="#322153"/>
<path d="M256.926 163.608C257.504 165.222 256.695 167.067 255.078 167.644L235.669 174.677C234.052 175.253 232.203 174.446 231.625 172.832L230.008 168.335C229.43 166.721 230.239 164.876 231.857 164.3L251.265 157.267C252.883 156.69 254.731 157.497 255.309 159.112L256.926 163.608Z" fill="#8257E6"/>
<path d="M284.192 185.515C284.192 185.515 291.47 182.978 292.741 184.477C293.896 185.861 286.618 187.936 286.964 188.051C287.195 188.167 294.82 186.437 295.514 188.051C296.207 189.666 287.426 192.548 287.426 192.548C287.426 192.548 295.745 190.242 296.322 191.972C296.9 193.701 287.658 196.238 287.658 196.238L287.195 192.433L286.618 188.051L284.192 185.515Z" fill="#965450"/>
<path d="M294.474 183.555C294.474 183.555 288.813 179.75 288.813 178.482C288.697 177.098 303.832 183.439 303.832 183.439L294.474 183.555Z" fill="#965450"/>
<path d="M406.075 145.16C404.92 147.236 410.581 98.9258 410.581 98.9258L384.356 116.566C384.356 116.566 386.666 147.466 383.778 147.582C382.623 147.582 378.117 149.311 373.149 151.156C374.305 156.921 376.615 158.189 378.579 163.724C393.252 163.608 409.195 163.262 418.206 149.888C413.007 148.158 407.577 142.278 406.075 145.16Z" fill="#76413B"/>
<path d="M381.237 148.043L380.081 144.007L408.964 137.666L410.119 144.584C410.119 144.584 444.778 156.114 449.399 182.056C454.02 207.998 451.71 224.716 446.511 233.364C446.511 233.364 406.076 239.129 388.746 230.481C371.417 221.834 353.509 157.267 362.752 151.502C371.994 145.737 381.237 148.043 381.237 148.043Z" fill="#34CB79"/>
<path opacity="0.1" d="M419.015 219.874C405.151 219.067 388.169 217.453 376.616 208.92C374.42 207.306 372.457 205.577 370.608 203.617C375.807 216.415 382.277 227.253 388.746 230.481C406.076 239.129 446.511 233.364 446.511 233.364C448.822 229.559 450.555 224.14 451.363 216.991C440.966 220.104 430.106 220.566 419.015 219.874Z" fill="#161826"/>
<path d="M417.628 199.927L447.088 197.621C447.088 197.621 439.579 249.505 430.914 267.376C422.25 285.247 382.392 355.579 397.988 316.378C397.988 316.378 377.771 346.932 395.1 315.802C395.1 315.802 376.038 340.591 392.789 314.072C392.789 314.072 373.149 336.555 393.945 304.848C393.945 304.848 378.348 312.343 395.678 299.66L412.43 255.846L417.628 199.927Z" fill="#965450"/>
<path d="M446.395 201.772C446.857 199.12 447.088 197.506 447.088 197.506L417.628 199.812L417.397 202.81C426.986 202.81 436.691 202.348 446.395 201.772Z" fill="#76413B"/>
<path d="M386.782 67.9108C386.782 67.9108 401.455 59.3787 422.943 73.4451C437.153 82.7843 436.46 112.647 405.729 132.247C369.222 155.538 386.782 67.9108 386.782 67.9108Z" fill="#051F38"/>
<path d="M407.116 83.8221C407.116 83.8221 390.595 71.0239 376.5 77.2501C358.709 85.3209 360.557 104.115 360.211 120.141C359.748 141.471 376.616 145.507 381.699 145.737C389.208 146.199 419.824 144.354 407.116 83.8221Z" fill="#965450"/>
<path d="M408.733 103.769C408.733 103.769 409.426 100.54 414.972 103.077C422.019 106.42 418.207 123.254 410.351 122.793C402.379 122.447 408.733 103.769 408.733 103.769Z" fill="#965450"/>
<path d="M408.733 103.768C408.733 103.768 409.657 115.298 407 115.413C404.227 115.529 401.339 94.5444 408.964 94.5444C416.589 94.775 408.733 103.768 408.733 103.768Z" fill="#051F38"/>
<path d="M408.733 103.769C408.733 103.769 403.072 78.1723 369.453 82.4383C369.453 82.4383 374.305 72.8686 384.934 68.3719C399.375 62.2611 420.979 86.8197 414.972 103.077C414.972 103.077 412.199 103.423 408.733 103.769Z" fill="#34CB79"/>
<path d="M422.943 80.1323C422.943 80.1323 421.094 49.5782 428.488 49.5782C435.882 49.5782 427.911 75.2898 427.911 75.2898C427.911 75.2898 434.034 38.5096 451.825 44.0439C469.617 49.5782 438.886 75.2898 438.886 75.2898C438.886 75.2898 452.981 62.3763 457.948 66.7577C462.801 71.0237 437.731 79.6711 437.731 79.6711C437.731 79.6711 456.793 74.1368 459.219 83.3606C461.645 92.4692 422.365 91.2009 422.943 80.1323Z" fill="#051F38"/>
<path d="M361.134 97.8889C361.134 97.8889 361.134 97.6583 361.366 97.1971C361.597 96.7359 361.828 96.1594 362.405 95.5829C362.983 95.0064 363.676 94.3146 364.6 93.8534C364.831 93.7381 365.062 93.6228 365.409 93.5075C365.64 93.3922 365.987 93.2769 366.218 93.2769C366.564 93.2769 366.795 93.1616 367.142 93.1616H368.066C368.644 93.1616 369.222 93.3922 369.799 93.6228C370.377 93.8534 370.839 94.084 371.301 94.4299C371.763 94.7758 372.11 95.1217 372.456 95.4676C372.803 95.8135 373.034 96.1594 373.15 96.5053C373.265 96.6206 373.381 96.8512 373.381 96.9665C373.496 97.0818 373.496 97.3124 373.612 97.4277C373.727 97.7736 373.843 98.0042 373.843 98.2348C373.958 98.6959 373.958 98.9265 373.958 98.9265C373.958 98.9265 373.727 98.8112 373.265 98.696C373.034 98.5807 372.803 98.4653 372.572 98.3501C372.341 98.2348 371.994 98.1195 371.648 97.8889C371.301 97.7736 371.07 97.543 370.723 97.4277C370.377 97.3124 370.03 97.1971 369.684 97.0818C369.337 96.9665 368.99 96.8512 368.644 96.7359C368.297 96.7359 367.951 96.6206 367.604 96.6206H367.142C367.026 96.6206 366.795 96.6206 366.564 96.6206C366.218 96.6206 365.871 96.7359 365.525 96.7359C365.178 96.8512 364.831 96.8512 364.485 96.9665C364.138 97.0818 363.792 97.0818 363.445 97.1971C362.752 97.4277 362.174 97.543 361.828 97.6583C361.481 97.8889 361.134 97.8889 361.134 97.8889Z" fill="#051F38"/>
<path d="M370.03 129.595C370.03 129.595 388.977 130.172 390.248 129.941C391.403 129.71 379.619 138.934 370.03 129.595Z" fill="white"/>
<path d="M371.301 108.496C371.301 108.496 371.301 108.726 371.186 109.187C371.07 109.649 370.954 110.225 370.723 111.032C370.608 111.378 370.492 111.839 370.261 112.185C370.146 112.416 370.03 112.646 369.915 112.762C369.799 112.992 369.568 113.223 369.453 113.338C369.106 113.684 368.759 114.145 368.182 114.376C368.066 114.491 367.951 114.491 367.72 114.606L367.373 114.722C367.142 114.837 366.795 114.837 366.449 114.837C365.871 114.837 365.178 114.722 364.716 114.26C364.254 113.915 363.907 113.453 363.676 112.877C363.445 112.416 363.329 111.955 363.214 111.493C363.098 111.032 363.098 110.571 363.098 110.225C363.098 109.418 363.098 108.841 363.214 108.38C363.329 107.919 363.445 107.688 363.445 107.688C363.445 107.688 363.445 108.726 363.792 110.225C363.907 110.917 364.138 111.839 364.6 112.531C364.831 112.877 365.062 113.223 365.409 113.453C365.756 113.684 366.102 113.799 366.449 113.799C366.68 113.799 366.795 113.799 367.026 113.684L367.373 113.569C367.373 113.569 367.489 113.453 367.604 113.453C367.951 113.338 368.297 112.992 368.644 112.762C368.99 112.416 369.222 112.07 369.453 111.724C369.684 111.378 369.915 111.032 370.03 110.686C370.377 109.994 370.608 109.418 370.839 109.072C371.186 108.726 371.301 108.496 371.301 108.496Z" fill="#1F2733"/>
<path d="M390.363 109.995C390.363 109.995 390.363 110.225 390.248 110.686C390.132 111.148 390.017 111.724 389.786 112.531C389.67 112.877 389.555 113.338 389.324 113.684C389.208 113.915 389.093 114.145 388.977 114.261C388.862 114.491 388.631 114.722 388.515 114.837C388.168 115.183 387.822 115.644 387.244 115.875C387.129 115.99 387.013 115.99 386.782 116.105L386.435 116.221C386.204 116.336 385.858 116.336 385.511 116.336C384.934 116.336 384.24 116.221 383.778 115.76C383.316 115.414 382.97 114.952 382.739 114.376C382.507 113.915 382.392 113.454 382.276 112.992C382.161 112.531 382.161 112.07 382.161 111.724C382.161 110.917 382.161 110.34 382.276 109.879C382.392 109.418 382.507 109.188 382.507 109.188C382.507 109.188 382.507 110.225 382.854 111.724C382.97 112.416 383.201 113.338 383.663 114.03C383.894 114.376 384.125 114.722 384.471 114.952C384.818 115.183 385.165 115.298 385.511 115.298C385.742 115.298 385.858 115.298 386.089 115.183L386.435 115.068C386.435 115.068 386.551 114.952 386.667 114.952C387.013 114.837 387.36 114.491 387.706 114.261C388.053 113.915 388.284 113.569 388.515 113.223C388.746 112.877 388.977 112.531 389.093 112.185C389.439 111.493 389.67 110.917 389.901 110.571C390.248 110.225 390.363 109.995 390.363 109.995Z" fill="#1F2733"/>
<path d="M411.39 119.565C411.736 119.103 411.968 118.758 412.199 118.296C412.43 117.835 412.545 117.374 412.661 116.913C412.661 116.682 412.661 116.452 412.661 116.221C412.661 116.106 412.545 115.99 412.545 115.99C412.545 115.875 412.43 115.76 412.314 115.76C412.199 115.644 412.199 115.644 412.083 115.529L411.852 115.299C411.736 115.183 411.621 115.183 411.505 115.183L411.159 115.068L410.928 114.953V114.722C410.581 113.454 410.466 112.301 410.35 111.033C410.235 110.456 410.235 109.764 410.35 109.188C410.35 108.496 410.466 107.919 410.697 107.228C410.812 106.882 411.043 106.536 411.39 106.305C411.736 106.075 412.199 105.844 412.545 105.959C413.007 105.959 413.238 106.075 413.585 106.19C413.932 106.305 414.278 106.421 414.509 106.651C414.74 106.882 415.087 107.112 415.202 107.343C415.433 107.574 415.549 107.919 415.664 108.15C415.896 108.727 416.011 109.418 415.896 109.995C415.78 109.418 415.664 108.842 415.318 108.265C415.202 108.035 414.971 107.804 414.74 107.574C414.509 107.343 414.278 107.228 414.047 107.112C413.816 106.997 413.585 106.882 413.238 106.882C413.007 106.882 412.661 106.766 412.43 106.766C411.968 106.766 411.736 107.112 411.621 107.574C411.274 108.611 411.39 109.764 411.39 110.917C411.505 112.07 411.621 113.338 411.852 114.491L411.621 114.146L411.968 114.376C412.083 114.491 412.199 114.491 412.314 114.607L412.661 114.837C412.776 114.953 412.892 115.068 413.007 115.183C413.123 115.299 413.238 115.414 413.238 115.644C413.354 115.76 413.354 115.99 413.354 116.106C413.469 116.452 413.354 116.682 413.354 117.028C413.238 117.605 412.892 118.066 412.545 118.527C412.199 118.873 411.736 119.334 411.39 119.565Z" fill="#76413B"/>
<path d="M373.034 124.407C372.457 124.523 371.994 124.522 371.532 124.522C371.07 124.522 370.608 124.407 370.261 124.292C369.799 124.177 369.453 123.946 369.106 123.831C368.875 123.715 368.76 123.6 368.528 123.485C368.297 123.37 368.182 123.254 367.951 123.139L367.258 122.562L367.373 122.101C368.528 118.758 369.684 115.529 370.839 112.301C371.994 109.073 373.265 105.729 374.536 102.5C373.727 105.844 372.803 109.303 371.994 112.647C371.07 115.99 370.146 119.334 369.222 122.678L368.76 121.64C368.991 121.64 369.222 121.755 369.453 121.755C369.684 121.755 369.915 121.871 370.03 121.986C370.377 122.101 370.839 122.332 371.186 122.562C371.532 122.793 371.879 123.139 372.225 123.485C372.457 123.6 372.803 123.946 373.034 124.407Z" fill="#76413B"/>
<path d="M379.85 96.5047C379.85 96.5047 379.966 96.1589 380.312 95.813C380.543 95.5824 380.659 95.3518 381.006 95.0059C381.352 94.7753 381.583 94.4294 382.045 94.1988C382.392 93.9682 382.854 93.6223 383.432 93.3917C383.894 93.1611 384.471 92.9305 385.049 92.6999C385.627 92.5846 386.32 92.354 387.013 92.354C387.36 92.354 387.706 92.354 388.053 92.354L389.093 92.4693C389.786 92.4693 390.479 92.8152 391.057 92.9305C391.634 93.1611 392.212 93.507 392.79 93.7376C393.367 94.0835 393.829 94.4294 394.176 94.7753C394.638 95.1212 394.985 95.5824 395.216 95.9283C395.562 96.2741 395.793 96.62 396.024 96.9659C396.255 97.3118 396.371 97.6577 396.487 97.8883C396.718 98.3495 396.833 98.6954 396.833 98.6954C396.833 98.6954 396.487 98.5801 396.024 98.3495C395.793 98.2342 395.447 98.1189 395.1 97.8883C394.754 97.6577 394.407 97.5424 393.945 97.4271C393.598 97.3118 393.136 97.0812 392.674 96.8506C392.212 96.7353 391.75 96.5047 391.288 96.3894C390.826 96.2742 390.363 96.1588 389.901 96.0436C389.439 96.0436 388.977 95.813 388.399 95.813L387.706 95.6977H387.013C386.551 95.6977 385.973 95.6977 385.511 95.6977C385.049 95.6977 384.587 95.6977 384.125 95.813C383.663 95.813 383.201 95.9283 382.738 95.9283C381.93 96.0436 381.121 96.1588 380.659 96.2741C380.197 96.5047 379.85 96.5047 379.85 96.5047Z" fill="#051F38"/>
<path d="M363.907 490.825C363.907 494.976 360.557 498.435 356.398 498.55C352.239 498.55 348.773 495.207 348.657 491.056L348.311 466.613C348.311 462.462 351.661 459.003 355.82 458.888C359.979 458.888 363.445 462.231 363.56 466.382L363.907 490.825Z" fill="#091E1D"/>
<path d="M257.504 492.094C257.504 496.245 254.154 499.704 249.995 499.819C245.836 499.819 242.37 496.476 242.254 492.325L241.908 467.882C241.908 463.731 245.258 460.272 249.417 460.157C253.576 460.157 257.042 463.5 257.158 467.651L257.504 492.094Z" fill="#091E1D"/>
<path d="M355.358 473.415C355.473 482.87 347.848 490.595 338.375 490.71L267.209 491.517C257.735 491.632 249.995 484.023 249.879 474.568L242.254 312.92C242.139 303.465 249.764 295.74 259.237 295.625L341.841 294.587C351.314 294.472 359.055 302.082 359.17 311.536L355.358 473.415Z" fill="#34CB79"/>
<path opacity="0.1" d="M358.708 327.793L359.055 311.767C358.939 302.312 351.199 294.702 341.725 294.818L259.122 295.855C249.648 295.971 242.023 303.696 242.139 313.15L242.947 329.177L358.708 327.793Z" fill="#161826"/>
<path d="M372.803 307.731C372.803 310.383 370.723 312.459 368.066 312.574L233.127 314.188C230.47 314.188 228.391 312.113 228.275 309.461L228.044 292.397C228.044 289.745 230.124 287.669 232.781 287.554L367.72 285.94C370.377 285.94 372.456 288.015 372.572 290.667L372.803 307.731Z" fill="#34CB79"/>
<path d="M301.174 355.119L316.887 345.665L313.074 355.465L301.174 355.119Z" fill="white"/>
<path d="M295.282 340.246C295.282 340.246 296.553 340.246 298.517 343.243C300.481 346.241 304.871 354.312 304.871 354.312L312.843 350.738L314.691 347.625C314.691 347.625 311.226 340.707 308.453 340.246H295.282Z" fill="white"/>
<path d="M290.892 342.321C290.892 342.321 293.318 339.67 295.282 341.053C297.246 342.437 300.712 348.202 300.712 348.202L295.051 358.117L284.885 352.468L290.892 342.321Z" fill="white"/>
<path d="M308.338 367.456L309.146 385.673L302.33 377.718L308.338 367.456Z" fill="white"/>
<path d="M324.28 369.301C324.28 369.301 323.703 370.454 320.121 370.8C316.54 371.146 307.298 371.146 307.298 371.146L306.604 379.908L308.453 383.021C308.453 383.021 316.193 383.367 317.926 381.061L324.28 369.301Z" fill="white"/>
<path d="M324.396 364.458C324.396 364.458 325.667 367.802 323.472 368.955C321.392 369.993 314.576 370.223 314.576 370.223L308.453 360.538L318.273 354.197L324.396 364.458Z" fill="white"/>
<path d="M294.472 367.225L278.298 358.693L288.695 356.849L294.472 367.225Z" fill="white"/>
<path d="M284.885 380.024C284.885 380.024 284.192 378.986 285.694 375.758C287.195 372.529 291.817 364.574 291.817 364.574L284.654 359.616L281.072 359.731C281.072 359.731 276.913 366.303 277.953 368.84L284.885 380.024Z" fill="white"/>
<path d="M288.928 382.56C288.928 382.56 285.347 381.868 285.578 379.562C285.693 377.141 288.928 371.261 288.928 371.261L300.366 370.915L300.828 382.56H288.928Z" fill="white"/>
<path d="M53.2474 445.167C53.2474 445.167 50.7058 485.868 48.5107 486.675C40.077 489.557 -23.5799 505.699 36.6112 478.604L34.9937 448.972L53.2474 445.167Z" fill="#051F38"/>
<path d="M50.5902 476.759C52.0921 464.422 53.2474 445.167 53.2474 445.167L34.9937 448.972L36.4956 475.376C41.0012 476.644 46.2001 476.759 50.5902 476.759Z" fill="#041523"/>
<path d="M11.0791 492.786C9.23061 497.282 42.5032 488.75 48.5107 486.675C48.6263 486.56 48.8573 486.329 49.0884 485.752C41.579 487.828 18.8196 493.016 11.0791 492.786Z" fill="white"/>
<path d="M92.181 442.977C92.181 442.977 95.5313 483.677 97.8419 484.369C106.391 487.136 170.279 502.009 109.51 476.067L110.55 446.436L92.181 442.977Z" fill="#051F38"/>
<path d="M95.5313 474.453C93.7984 462.231 92.181 442.977 92.181 442.977L110.55 446.436L109.626 472.839C105.12 474.222 99.9215 474.338 95.5313 474.453Z" fill="#041523"/>
<path d="M135.389 489.788C137.353 494.284 103.849 486.329 97.8419 484.369C97.6109 484.369 97.4953 484.023 97.2643 483.446C104.774 485.522 127.649 490.249 135.389 489.788Z" fill="white"/>
<path d="M103.387 223.218C103.387 223.218 120.024 357.31 116.673 465.806C116.673 465.806 96.8021 471.34 91.6033 467.305C87.0976 441.593 87.6753 391.554 80.9745 354.428C74.6204 319.377 72.0788 290.667 72.0788 290.667L69.9992 288.361C69.9992 288.361 56.3667 457.85 53.3629 470.764C36.149 474.799 30.7191 470.072 30.7191 470.072C30.7191 470.072 22.8631 258.038 27.7153 223.794C33.9539 179.059 103.387 223.218 103.387 223.218Z" fill="#34CB79"/>
<path opacity="0.1" d="M106.39 251.004C104.657 233.709 103.271 223.333 103.271 223.333C103.271 223.333 33.9527 179.173 27.5986 223.909C27.0209 228.06 26.6743 234.862 26.3277 243.51C31.5266 246.392 96.4543 255.616 106.39 251.004Z" fill="#161826"/>
<path opacity="0.1" d="M70.8079 286.978C71.6166 296.087 75.7757 325.488 80.9746 354.428C87.6753 391.669 87.0976 441.593 91.6033 467.305C96.8021 471.34 116.673 465.806 116.673 465.806C118.637 399.048 113.207 322.605 108.586 273.719C97.6108 280.637 83.6317 283.98 70.8079 286.978Z" fill="#161826"/>
<path d="M76.7 105.959C76.8155 91.893 77.8553 73.3299 77.8553 73.3299L50.1281 65.7202C50.1281 65.7202 51.0524 90.8553 51.8611 106.19C39.2683 110.456 24.9426 118.527 24.9426 118.527L77.2776 131.786L95.8779 113.8C95.8779 113.8 86.52 109.072 76.7 105.959Z" fill="#FFB39F"/>
<path d="M76.7 105.959C76.8155 91.893 77.8553 73.3299 77.8553 73.3299L50.1281 65.7202C50.1281 65.7202 51.0524 90.8553 51.8611 106.19C39.2683 110.456 24.9426 118.527 24.9426 118.527L77.2776 131.786L102.001 110.571C102.001 110.571 86.6355 104.806 76.7 105.959Z" fill="#E09B8D"/>
<path d="M47.7019 39.0864C47.7019 39.0864 54.9803 15.5655 74.1582 19.255C93.3362 22.9446 96.1089 47.9644 98.535 64.7979C100.961 81.7468 95.5313 96.9662 80.5124 98.811C67.4575 100.425 44.6981 97.8886 47.7019 39.0864Z" fill="#FFB39F"/>
<path d="M48.6262 58.8026C48.6262 58.8026 47.4709 55.6896 42.7342 59.1485C36.7267 63.5299 42.8498 79.6717 50.1281 77.9422C57.4065 76.2127 48.6262 58.8026 48.6262 58.8026Z" fill="#FFB39F"/>
<path d="M41.9255 25.5963C42.3876 25.481 51.3989 24.7892 45.3914 25.3657C50.9368 31.3612 50.3591 32.8601 57.9841 34.2437C62.0276 46.6959 54.0561 54.1903 54.0561 54.1903L56.2512 69.1791L50.4747 69.7556C50.4747 69.7556 50.5902 59.3788 46.2001 58.4564C41.8099 57.534 40.5391 62.8377 40.5391 62.8377C31.4123 51.3079 22.1699 28.7094 41.9255 25.5963Z" fill="#051F38"/>
<path d="M94.2604 17.1795C97.9574 8.07089 91.7188 0 91.7188 0C92.7585 3.34366 92.2964 6.45671 91.2566 8.99328C90.5635 6.45671 89.2926 3.68955 86.982 0.922387C86.982 0.922387 87.6752 10.1463 75.0825 8.99328C62.4897 7.84029 40.4235 9.56977 39.4993 29.0552C38.4595 48.5407 57.2909 34.3589 57.2909 34.3589C57.2909 34.3589 94.8381 44.8511 100.268 14.6429L94.2604 17.1795Z" fill="#051F38"/>
<path d="M76.4689 50.8476C76.4689 50.8476 76.1223 50.8476 75.6602 50.7323C75.0826 50.617 74.3894 50.5017 73.5807 50.3864C73.1186 50.2711 72.772 50.2711 72.3098 50.2711C71.8477 50.1558 71.3856 50.1558 70.9235 50.1558C70.4614 50.1558 69.9993 50.1558 69.4216 50.1558C69.1905 50.1558 68.9595 50.1558 68.7284 50.1558L68.0352 50.2711C67.5731 50.2711 67.111 50.3864 66.5334 50.5017C66.0712 50.617 65.6091 50.7323 65.147 50.8476C64.6849 50.9629 64.2228 51.1935 63.7606 51.3088C63.2985 51.4241 62.9519 51.6547 62.4898 51.77C62.1432 51.8853 61.6811 52.0006 61.45 52.2312C61.1035 52.3465 60.8724 52.4618 60.6413 52.5771C60.1792 52.8077 59.8326 52.923 59.8326 52.923C59.8326 52.923 59.9482 52.5771 60.1792 52.1159C60.2947 51.8853 60.4103 51.5394 60.6413 51.1935C60.8724 50.8476 61.1035 50.5017 61.45 50.1558C61.7966 49.8099 62.0277 49.3487 62.4898 49.0028C62.9519 48.6569 63.4141 48.311 63.9917 47.9651C64.5694 47.7345 65.147 47.3886 65.7247 47.158C66.4178 46.9274 66.9955 46.8121 67.6887 46.6968L68.7284 46.5815C69.075 46.5815 69.4216 46.5815 69.7682 46.6968C70.1148 46.6968 70.4614 46.8121 70.6924 46.8121C71.039 46.9274 71.2701 46.9274 71.6167 47.0427C72.1943 47.2733 72.772 47.3886 73.2341 47.7345C73.6962 47.9651 74.1583 48.311 74.6204 48.5416C74.967 48.7722 75.3136 49.1181 75.6602 49.3487C75.8913 49.5793 76.1223 49.9252 76.3534 50.0405C76.2379 50.5017 76.4689 50.8476 76.4689 50.8476Z" fill="#051F38"/>
<path d="M95.9934 50.27C95.9934 50.27 95.7623 50.1547 95.3002 50.0394C94.8381 49.9241 94.2605 49.6935 93.6828 49.4629C93.3362 49.3477 92.9896 49.2324 92.6431 49.1171C92.2965 49.0018 91.9499 48.8865 91.6033 48.8865C91.2567 48.8865 90.9101 48.7712 90.5635 48.6559C90.448 48.6559 90.2169 48.6559 90.1014 48.5406H89.6393C89.2927 48.4253 88.9461 48.6559 88.5995 48.5406C88.2529 48.6559 87.9063 48.6559 87.5597 48.7712C87.2131 48.8865 86.8666 49.0018 86.52 49.1171C86.1734 49.2324 85.8268 49.3477 85.5957 49.4629C85.2491 49.5782 84.9025 49.6936 84.6715 49.8088C84.4404 49.9241 84.2094 50.0394 83.9783 50.0394C83.5162 50.1547 83.2851 50.27 83.2851 50.27C83.2851 50.27 83.2851 50.0394 83.5162 49.5782C83.6317 49.3476 83.6317 49.1171 83.8628 48.7712C83.9783 48.4253 84.2094 48.1947 84.4404 47.8488C84.6715 47.5029 84.9025 47.157 85.2491 46.8111C85.5957 46.4652 86.0578 46.2346 86.4044 45.8887C86.8666 45.6581 87.4442 45.4275 87.9063 45.1969C88.484 45.0816 89.0616 44.9663 89.6393 44.9663C89.9859 44.9663 90.2169 44.9663 90.5635 44.9663C90.9101 44.9663 91.1412 45.0816 91.3722 45.1969C91.6033 45.1969 91.9499 45.3122 92.1809 45.4275C92.412 45.5428 92.643 45.6581 92.8741 45.7734C93.7983 46.3499 94.4915 46.9264 94.9536 47.6182C95.4158 48.31 95.6468 48.8865 95.8779 49.3477C95.9934 50.0394 95.9934 50.27 95.9934 50.27Z" fill="#051F38"/>
<path d="M81.7833 51.5381C82.4765 53.037 83.1697 54.6511 83.8628 56.15C84.2094 56.9571 84.4405 57.6489 84.7871 58.456L85.7113 60.762L86.6356 63.0679C86.9821 63.875 87.2132 64.5668 87.5598 65.3739L88.0219 66.5269C88.1375 66.8728 88.3685 67.334 88.484 67.6799C88.8306 68.3717 89.1772 69.0635 89.5238 69.8705L89.8704 70.7929L89.1772 71.1388C88.1375 71.6 87.0977 72.1765 85.9424 72.6377C84.9026 73.0989 83.7473 73.5601 82.592 73.906C83.5162 73.0989 84.4405 72.4071 85.3647 71.7153C86.289 71.0235 87.3287 70.3317 88.253 69.6399L87.9064 70.9082C87.4443 70.2164 86.9821 69.4093 86.52 68.7176C86.0579 68.0258 85.7113 67.2187 85.3647 66.4116L84.7871 65.2586L84.325 64.1056C84.0939 63.2985 83.7473 62.4914 83.5162 61.6843L82.8231 59.2631C82.592 58.456 82.4765 57.6489 82.2454 56.8418C82.1299 54.997 81.8988 53.2676 81.7833 51.5381Z" fill="#DD9078"/>
<path d="M48.2796 74.5981C47.8175 74.3675 47.3554 74.0216 47.0088 73.5604C46.6622 73.2145 46.2001 72.7533 45.969 72.1768C45.8535 71.9462 45.7379 71.6003 45.7379 71.2544C45.7379 71.1391 45.7379 70.9085 45.7379 70.7932C45.7379 70.6779 45.8535 70.4473 45.8535 70.332C45.969 69.9861 46.2001 69.7555 46.4311 69.5249C46.5466 69.4096 46.6622 69.2943 46.7777 69.179L47.1243 68.9484L46.8932 69.2943C46.8932 68.026 46.8932 66.7578 46.7777 65.6048C46.6622 64.3365 46.5467 63.0682 46.0845 62.0305C45.969 61.7999 45.8535 61.5693 45.6224 61.454C45.5069 61.3387 45.2758 61.2234 45.0448 61.2234C44.9292 61.2234 44.8137 61.2234 44.6982 61.3387C44.5826 61.3387 44.3516 61.454 44.2361 61.454C44.005 61.5693 43.7739 61.6846 43.5429 61.9152C43.3118 62.1458 43.0808 62.2611 42.9652 62.4917C42.8497 62.7223 42.6186 62.9529 42.5031 63.2988C42.272 63.8753 42.1565 64.4518 42.1565 65.1436C41.9255 64.5671 41.9255 63.8753 42.041 63.1835C42.041 62.8376 42.1565 62.4917 42.3876 62.2611C42.5031 61.9152 42.7342 61.6846 42.9652 61.454L43.3118 61.1081L43.7739 60.7622C43.8895 60.6469 44.1205 60.6469 44.2361 60.5316C44.3516 60.4163 44.5826 60.4163 44.8137 60.301C45.2758 60.1858 45.7379 60.3011 46.0845 60.6469C46.4311 60.8775 46.6622 61.2234 46.7777 61.5693C47.1243 62.2611 47.2398 62.8376 47.4709 63.5294C47.5864 64.2212 47.7019 64.7977 47.7019 65.4895C47.8175 66.7578 47.8175 68.026 47.7019 69.4096V69.6402L47.4709 69.7555C47.2398 69.8708 47.0088 69.9861 46.8932 70.2167C46.7777 70.332 46.5466 70.5626 46.4311 70.6779C46.3156 70.7932 46.3156 70.9085 46.3156 71.0238C46.3156 71.1391 46.2001 71.2544 46.2001 71.3697C46.2001 71.6003 46.2001 71.8309 46.2001 72.0615C46.3156 72.5227 46.5466 72.9839 46.8932 73.4451C47.5864 73.9063 47.933 74.2522 48.2796 74.5981Z" fill="#DD9078"/>
<path d="M66.4178 61.7997C66.4178 61.7997 66.5333 62.0303 66.6488 62.4915C66.7644 62.7221 66.7644 62.9527 66.8799 63.1833C66.9954 63.4139 67.1109 63.7598 67.342 64.1057C67.4575 64.4516 67.8041 64.6822 67.9197 65.0281C68.0352 65.1434 68.1507 65.2587 68.3818 65.4893C68.4973 65.6046 68.6128 65.7199 68.8439 65.8352C69.1905 66.0658 69.5371 66.1811 69.8837 66.2964C70.1147 66.2964 70.2303 66.4117 70.4613 66.4117C70.6924 66.4117 70.8079 66.4117 71.039 66.2964L71.6166 66.0658L72.1943 65.7199C72.5408 65.4893 72.7719 65.1434 73.003 64.7975C73.234 64.4516 73.3496 64.1057 73.5806 63.7598C73.6961 63.4139 73.8117 63.068 73.8117 62.6068C73.8117 62.2609 73.8117 61.915 73.9272 61.6844C73.9272 61.3385 73.9272 61.1079 73.9272 60.8773C73.9272 60.4161 73.9272 60.1855 73.9272 60.1855C73.9272 60.1855 74.0427 60.4161 74.1583 60.8773C74.2738 61.1079 74.2738 61.3385 74.3893 61.6844C74.3893 62.0303 74.5049 62.3762 74.5049 62.7221C74.5049 63.068 74.5049 63.5292 74.3893 63.9904C74.2738 64.4516 74.1583 64.9128 73.9272 65.374C73.6961 65.8352 73.3496 66.2964 72.8874 66.6423L72.1943 67.1035C71.9632 67.2188 71.6166 67.334 71.3855 67.4493C71.1545 67.4493 70.8079 67.5646 70.4613 67.5646C70.2303 67.5646 69.8837 67.4493 69.6526 67.4493C69.075 67.334 68.6128 66.9882 68.1507 66.6423C67.6886 66.2964 67.4575 65.8352 67.2265 65.4893C66.9954 65.0281 66.7644 64.6822 66.6488 64.3363C66.5333 63.9904 66.4178 63.6445 66.4178 63.2986C66.4178 62.9527 66.4178 62.7221 66.4178 62.4915C66.4178 62.0303 66.4178 61.7997 66.4178 61.7997Z" fill="#1F2733"/>
<path d="M87.3287 58.3407C87.3287 58.3407 87.4442 58.5713 87.5598 59.0325C87.6753 59.2631 87.6753 59.4937 87.7908 59.7243C87.9063 59.9549 88.0219 60.3008 88.2529 60.6467C88.3685 60.9926 88.7151 61.2232 88.8306 61.5691C88.9461 61.6844 89.0616 61.7997 89.2927 62.0303C89.4082 62.1456 89.5238 62.2609 89.7548 62.3762C90.1014 62.6068 90.448 62.7221 90.7946 62.8374C91.0257 62.8374 91.1412 62.9527 91.3722 62.9527C91.6033 62.9527 91.7188 62.9527 91.9499 62.8374L92.5275 62.6068L93.1052 62.2609C93.4518 62.0303 93.6828 61.6844 93.9139 61.3385C94.145 60.9926 94.2605 60.6467 94.4915 60.3008C94.6071 59.9549 94.7226 59.609 94.7226 59.1478C94.7226 58.8019 94.7226 58.456 94.8381 58.2254C94.8381 57.8795 94.8381 57.6489 94.8381 57.4184C94.8381 56.9572 94.8381 56.7266 94.8381 56.7266C94.8381 56.7266 94.9537 56.9572 95.0692 57.4184C95.1847 57.6489 95.1847 57.8795 95.3003 58.2254C95.3003 58.5713 95.4158 58.9172 95.4158 59.2631C95.4158 59.609 95.4158 60.0702 95.3003 60.5314C95.1847 60.9926 95.0692 61.4538 94.8381 61.915C94.6071 62.3762 94.2605 62.8374 93.7984 63.1833L93.1052 63.6445C92.8741 63.7598 92.5275 63.8751 92.2965 63.9904C92.0654 63.9904 91.7188 64.1057 91.3722 64.1057C91.1412 64.1057 90.7946 63.9904 90.5635 63.9904C89.9859 63.8751 89.5238 63.5292 89.0617 63.1833C88.5995 62.8374 88.3685 62.3762 88.1374 62.0303C87.9064 61.5691 87.6753 61.2232 87.5598 60.8773C87.4442 60.5314 87.3287 60.1855 87.3287 59.8396C87.3287 59.4937 87.3287 59.2631 87.3287 59.0325C87.3287 58.5713 87.3287 58.3407 87.3287 58.3407Z" fill="#1F2733"/>
<path d="M68.2375 78.1031C68.2375 78.1031 68.1219 78.1031 68.2375 78.2184C68.353 78.3337 68.584 78.449 68.8151 78.5643C69.2772 78.9102 70.0859 79.2561 71.0102 79.7172C71.9344 80.1784 73.0897 80.6396 74.245 80.9855C74.8227 81.2161 75.5158 81.3314 76.0935 81.4467C76.6711 81.562 77.3643 81.6773 78.0575 81.7926C79.3283 81.9079 80.5991 82.0232 81.87 81.9079C83.1408 81.7926 84.1806 81.562 85.2203 81.2161C86.1446 80.8702 86.9533 80.6396 87.5309 80.409C88.1086 80.1784 88.4552 80.0631 88.4552 80.0631C88.4552 80.0631 88.2241 80.409 87.762 80.7549C87.2999 81.2161 86.6067 81.7926 85.6824 82.3691C84.7582 82.9456 83.4874 83.5221 82.101 83.7527C80.7147 84.0986 79.2128 84.0986 77.7109 83.9833C77.0177 83.868 76.209 83.7527 75.5158 83.5221C74.8226 83.2915 74.1295 83.0609 73.5518 82.715C72.281 82.1385 71.2412 81.4467 70.4325 80.7549C69.6238 80.0631 68.9306 79.3713 68.584 78.7949C68.353 78.5643 68.2375 78.3337 68.2375 78.1031C68.1219 78.1031 68.1219 78.2184 68.2375 78.1031Z" fill="#DD9078"/>
<path d="M86.289 105.614C86.289 105.614 115.865 102.5 119.677 125.099C123.49 147.813 123.143 153.924 123.143 153.924L94.2606 149.658L86.289 105.614Z" fill="#8257E6"/>
<path d="M111.242 123.83C109.509 109.418 94.8372 106.305 86.288 105.613C82.4755 110.917 77.1611 114.721 69.8828 114.952C61.5646 115.183 53.9397 112.3 49.8961 105.959C36.9568 107.458 24.133 111.147 21.2447 119.91C15.1216 138.358 20.436 239.82 20.436 239.82C20.436 239.82 72.1934 248.698 114.708 240.627C114.593 240.743 113.553 143.085 111.242 123.83Z" fill="#8257E6"/>
<path opacity="0.2" d="M18.2419 169.258C18.4729 202.695 20.4369 239.936 20.4369 239.936C20.4369 239.936 72.1943 248.814 114.709 240.743C114.709 240.743 113.901 166.607 112.168 134.784C80.859 146.429 49.5505 157.959 18.2419 169.258Z" fill="#352C38"/>
<path d="M50.1276 196.007C50.1276 196.007 48.9723 192.664 54.2866 190.473C59.601 188.282 114.362 173.985 117.828 174.446C121.294 174.908 163.693 179.981 164.387 182.287C165.08 184.593 113.669 201.196 113.669 201.196L50.1276 196.007Z" fill="#E1EDFF"/>
<path d="M116.558 205.577C116.558 205.577 56.5978 205.346 51.9766 199.927C47.3554 194.508 47.2399 190.588 73.4651 195.2C99.6904 199.812 114.825 199.12 114.825 199.12C114.825 199.12 162.885 176.752 164.503 182.171C166.004 187.706 171.088 186.322 116.558 205.577Z" fill="#C0D5FF"/>
<path d="M164.387 182.287C162.885 176.868 114.709 199.235 114.709 199.235C114.709 199.235 114.594 199.235 114.247 199.235C115.287 201.311 116.096 203.271 117.02 205.462C171.088 186.322 166.004 187.706 164.387 182.287Z" fill="#B1C5E8"/>
<path d="M48.3943 183.67C48.3943 183.67 47.239 180.327 52.5534 178.136C57.8678 175.945 112.629 161.648 116.095 162.11C119.561 162.571 161.96 167.644 162.653 169.95C163.346 172.256 111.936 188.859 111.936 188.859L48.3943 183.67Z" fill="#E1EDFF"/>
<path d="M114.824 193.355C114.824 193.355 54.8645 193.125 50.2433 187.706C45.6221 182.287 45.5066 178.366 71.7318 182.978C97.9571 187.59 113.092 186.899 113.092 186.899C113.092 186.899 161.152 164.531 162.769 169.95C164.156 175.369 169.355 173.985 114.824 193.355Z" fill="#C0D5FF"/>
<path d="M162.654 170.065C161.152 164.646 112.976 187.014 112.976 187.014C112.976 187.014 112.861 187.014 112.514 187.014C113.554 189.089 114.363 191.049 115.287 193.24C169.239 173.985 164.156 175.369 162.654 170.065Z" fill="#B1C5E8"/>
<path d="M48.1636 173.64C48.1636 173.64 47.1238 170.757 52.2071 168.797C57.2904 166.837 110.319 154.269 113.669 154.731C117.019 155.192 158.032 159.688 158.726 161.649C159.419 163.609 109.625 178.367 109.625 178.367L48.1636 173.64Z" fill="#E1EDFF"/>
<path d="M112.399 182.171C112.399 182.171 54.4028 181.941 49.8971 177.214C45.3915 172.486 45.3915 169.027 70.6925 173.063C95.9935 177.098 110.666 176.522 110.666 176.522C110.666 176.522 157.224 156.806 158.726 161.648C160.228 166.376 165.196 165.107 112.399 182.171Z" fill="#C0D5FF"/>
<path d="M158.726 161.648C157.224 156.921 110.666 176.522 110.666 176.522C110.666 176.522 110.55 176.522 110.204 176.522C111.128 178.251 112.052 180.096 112.861 181.941C165.196 165.107 160.228 166.376 158.726 161.648Z" fill="#B1C5E8"/>
<path d="M49.7809 160.149C49.7809 160.149 48.8567 157.267 54.0555 155.422C59.2544 153.693 112.629 143.085 115.979 143.662C119.33 144.123 160.112 150.234 160.69 152.194C161.267 154.154 111.012 166.952 111.012 166.952L49.7809 160.149Z" fill="white"/>
<path d="M113.67 171.102C113.67 171.102 55.6736 168.681 51.399 163.838C47.1244 158.88 47.1244 155.537 72.3099 160.494C97.4954 165.452 112.168 165.452 112.168 165.452C112.168 165.452 159.419 147.581 160.69 152.308C162.077 157.035 167.044 155.998 113.67 171.102Z" fill="#C0D5FF"/>
<path d="M160.69 152.309C159.419 147.467 112.168 165.453 112.168 165.453C112.168 165.453 112.052 165.453 111.706 165.453C112.63 167.298 113.439 169.143 114.132 170.988C166.929 155.999 161.961 157.036 160.69 152.309Z" fill="#B1C5E8"/>
<path d="M19.6283 162.34L48.1642 155.422C48.1642 155.422 54.2873 196.93 55.9047 199.236C57.5221 201.542 105.236 203.848 105.236 203.848L119.099 204.655C119.099 204.655 60.5259 229.213 43.6585 219.298C26.5601 209.151 19.6283 162.34 19.6283 162.34Z" fill="#FFB39F"/>
<path d="M22.4011 167.298C31.1813 164.646 39.7305 161.418 48.7418 159.458C48.3952 156.921 48.1642 155.422 48.1642 155.422L19.6283 162.34C19.6283 162.34 19.9749 164.416 20.5526 167.875C21.2458 167.644 21.8234 167.413 22.4011 167.298Z" fill="#E09B8D"/>
<path d="M113.785 208.46C113.785 208.46 135.505 202.695 135.505 198.314C135.505 193.932 127.649 178.136 133.194 199.236C133.194 199.236 121.641 170.642 130.884 200.62C130.884 200.62 121.872 177.329 127.995 201.196C127.995 201.196 118.753 185.054 125.454 202.349L117.135 205.462L97.1488 205.231L86.5201 215.608L113.785 208.46Z" fill="#FFB39F"/>
<path d="M164.618 187.36C164.618 187.36 153.065 158.766 162.308 188.744C162.308 188.744 153.296 165.453 159.419 189.32C159.419 189.32 150.177 173.178 156.069 190.588L149.715 193.586C152.025 193.817 155.029 193.701 157.455 192.894C164.849 191.395 166.929 188.859 166.929 186.553C166.929 182.172 159.073 166.376 164.618 187.36Z" fill="#FFB39F"/>
<path d="M194.078 490.826C194.078 494.977 190.728 498.436 186.569 498.551C182.41 498.551 178.944 495.207 178.828 491.056L178.482 466.613C178.482 462.462 181.832 459.003 185.991 458.888C190.15 458.888 193.616 462.232 193.732 466.383L194.078 490.826Z" fill="#091E1D"/>
<path d="M87.6753 492.095C87.6753 496.246 84.325 499.705 80.1659 499.82C76.0068 499.82 72.5409 496.476 72.4254 492.326L72.0788 467.882C72.0788 463.731 75.4292 460.273 79.5882 460.157C83.7473 460.157 87.2132 463.501 87.3287 467.652L87.6753 492.095Z" fill="#091E1D"/>
<path d="M185.529 473.416C185.645 482.87 178.02 490.595 168.546 490.71L97.3798 491.517C87.9064 491.633 80.1659 484.023 80.0503 474.569L72.4254 312.92C72.3098 303.466 79.9348 295.741 89.4082 295.625L172.012 294.588C181.485 294.472 189.226 302.082 189.342 311.537L185.529 473.416Z" fill="#322153"/>
<path d="M188.879 327.794L189.226 311.767C189.11 302.313 181.37 294.703 171.897 294.818L89.2927 295.856C79.8193 295.971 72.1943 303.696 72.3098 313.151L73.1185 329.177L188.879 327.794Z" fill="#1C0C3B"/>
<path d="M202.974 307.732C202.974 310.384 200.895 312.459 198.237 312.574L63.2986 314.189C60.6414 314.189 58.5618 312.113 58.4463 309.461L58.2153 292.397C58.2153 289.745 60.2948 287.67 62.952 287.555L197.891 285.94C200.548 285.94 202.627 288.016 202.743 290.668L202.974 307.732Z" fill="#322153"/>
<path d="M131.346 355.12L147.058 345.665L143.245 355.465L131.346 355.12Z" fill="white"/>
<path d="M125.454 340.246C125.454 340.246 126.724 340.246 128.688 343.244C130.652 346.242 135.043 354.313 135.043 354.313L143.014 350.738L144.863 347.625C144.863 347.625 141.397 340.707 138.624 340.246H125.454Z" fill="white"/>
<path d="M121.064 342.322C121.064 342.322 123.49 339.67 125.454 341.054C127.418 342.437 130.884 348.202 130.884 348.202L125.223 358.118L115.056 352.468L121.064 342.322Z" fill="white"/>
<path d="M138.508 367.457L139.317 385.674L132.501 377.718L138.508 367.457Z" fill="white"/>
<path d="M154.452 369.301C154.452 369.301 153.874 370.454 150.293 370.8C146.711 371.146 137.469 371.146 137.469 371.146L136.776 379.909L138.624 383.022C138.624 383.022 146.365 383.368 148.097 381.062L154.452 369.301Z" fill="white"/>
<path d="M154.567 364.459C154.567 364.459 155.838 367.803 153.643 368.955C151.563 369.993 144.747 370.224 144.747 370.224L138.624 360.539L148.444 354.197L154.567 364.459Z" fill="white"/>
<path d="M124.76 367.226L108.585 358.694L118.868 356.849L124.76 367.226Z" fill="white"/>
<path d="M115.056 380.024C115.056 380.024 114.363 378.986 115.865 375.758C117.366 372.53 121.988 364.574 121.988 364.574L114.825 359.616L111.243 359.732C111.243 359.732 107.084 366.304 108.124 368.84L115.056 380.024Z" fill="white"/>
<path d="M119.215 382.561C119.215 382.561 115.634 381.869 115.865 379.563C115.98 377.142 119.215 371.261 119.215 371.261L130.652 370.916L131.115 382.561H119.215Z" fill="white"/>
</svg>
